<svg xmlns="http://www.w3.org/2000/svg" xmlns:xlink="http://www.w3.org/1999/xlink" zoomAndPan="magnify" viewBox="0 50 375 275"  preserveAspectRatio="xMidYMid meet" version="1.0"><defs><g/><clipPath id="002dd91004"><path d="M 261 177 L 270 177 L 270 214 L 261 214 Z M 261 177 " clip-rule="nonzero"/></clipPath><clipPath id="e50adf9d59"><path d="M 252.675781 179.78125 L 264.296875 176.78125 L 273.667969 213.09375 L 262.046875 216.089844 Z M 252.675781 179.78125 " clip-rule="nonzero"/></clipPath><clipPath id="294b3123ca"><path d="M 252.675781 179.78125 L 264.296875 176.78125 L 273.667969 213.09375 L 262.046875 216.089844 Z M 252.675781 179.78125 " clip-rule="nonzero"/></clipPath><clipPath id="15d37293a4"><path d="M 242.773438 172 L 252 172 L 252 213.90625 L 242.773438 213.90625 Z M 242.773438 172 " clip-rule="nonzero"/></clipPath><clipPath id="60563873f7"><path d="M 270 162 L 282 162 L 282 173 L 270 173 Z M 270 162 " clip-rule="nonzero"/></clipPath><clipPath id="f8533b04cb"><path d="M 272.457031 160.96875 L 282.546875 163.871094 L 279.855469 173.242188 L 269.765625 170.339844 Z M 272.457031 160.96875 " clip-rule="nonzero"/></clipPath><clipPath id="0633f22aa9"><path d="M 272.457031 160.96875 L 282.546875 163.871094 L 279.855469 173.242188 L 269.765625 170.339844 Z M 272.457031 160.96875 " clip-rule="nonzero"/></clipPath><clipPath id="129e61770b"><path d="M 257 162 L 269 162 L 269 173 L 257 173 Z M 257 162 " clip-rule="nonzero"/></clipPath><clipPath id="34a4f8aa14"><path d="M 260.410156 160.96875 L 270.410156 166.125 L 265.945312 174.792969 L 255.945312 169.636719 Z M 260.410156 160.96875 " clip-rule="nonzero"/></clipPath><clipPath id="c3b547861d"><path d="M 260.410156 160.96875 L 270.410156 166.125 L 265.945312 174.792969 L 255.945312 169.636719 Z M 260.410156 160.96875 " clip-rule="nonzero"/></clipPath><clipPath id="80bbd51c25"><path d="M 270 170 L 282 170 L 282 181 L 270 181 Z M 270 170 " clip-rule="nonzero"/></clipPath><clipPath id="8a93d20276"><path d="M 273.367188 168.710938 L 283.367188 173.867188 L 278.902344 182.53125 L 268.902344 177.378906 Z M 273.367188 168.710938 " clip-rule="nonzero"/></clipPath><clipPath id="465886708e"><path d="M 273.367188 168.710938 L 283.367188 173.867188 L 278.902344 182.53125 L 268.902344 177.378906 Z M 273.367188 168.710938 " clip-rule="nonzero"/></clipPath><clipPath id="cb4837d0ac"><path d="M 263.152344 170.515625 L 272.902344 170.515625 L 272.902344 183.265625 L 263.152344 183.265625 Z M 263.152344 170.515625 " clip-rule="nonzero"/></clipPath><clipPath id="ef9fe14515"><path d="M 257.5 169.101562 L 268 169.101562 L 268 178.851562 L 257.5 178.851562 Z M 257.5 169.101562 " clip-rule="nonzero"/></clipPath><clipPath id="98e8b0c9d3"><path d="M 263 158 L 275 158 L 275 180 L 263 180 Z M 263 158 " clip-rule="nonzero"/></clipPath><clipPath id="9deb3dcb1e"><path d="M 263.152344 179.523438 L 264.203125 157.800781 L 274.691406 158.308594 L 273.640625 180.03125 Z M 263.152344 179.523438 " clip-rule="nonzero"/></clipPath><clipPath id="017b4bdf3e"><path d="M 263.152344 179.523438 L 264.203125 157.800781 L 274.691406 158.308594 L 273.640625 180.03125 Z M 263.152344 179.523438 " clip-rule="nonzero"/></clipPath><clipPath id="6a8c235401"><path d="M 246 182 L 258 182 L 258 192 L 246 192 Z M 246 182 " clip-rule="nonzero"/></clipPath><clipPath id="41f8ec0ae9"><path d="M 254.625 180.007812 L 258.78125 189.652344 L 249.828125 193.511719 L 245.671875 183.867188 Z M 254.625 180.007812 " clip-rule="nonzero"/></clipPath><clipPath id="a891e56ae5"><path d="M 254.625 180.007812 L 258.78125 189.652344 L 249.828125 193.511719 L 245.671875 183.867188 Z M 254.625 180.007812 " clip-rule="nonzero"/></clipPath><clipPath id="e63c27a12e"><path d="M 242 170 L 252 170 L 252 181 L 242 181 Z M 242 170 " clip-rule="nonzero"/></clipPath><clipPath id="00740fd5ca"><path d="M 250.910156 169.722656 L 251.613281 180.949219 L 241.882812 181.558594 L 241.179688 170.332031 Z M 250.910156 169.722656 " clip-rule="nonzero"/></clipPath><clipPath id="11e6187953"><path d="M 250.910156 169.722656 L 251.613281 180.949219 L 241.882812 181.558594 L 241.179688 170.332031 Z M 250.910156 169.722656 " clip-rule="nonzero"/></clipPath><clipPath id="0a9678fb0f"><path d="M 240 185 L 250 185 L 250 196 L 240 196 Z M 240 185 " clip-rule="nonzero"/></clipPath><clipPath id="9fd2efcfae"><path d="M 249.578125 184.734375 L 250.277344 195.964844 L 240.546875 196.570312 L 239.847656 185.34375 Z M 249.578125 184.734375 " clip-rule="nonzero"/></clipPath><clipPath id="f50bb8de43"><path d="M 249.578125 184.734375 L 250.277344 195.964844 L 240.546875 196.570312 L 239.847656 185.34375 Z M 249.578125 184.734375 " clip-rule="nonzero"/></clipPath><clipPath id="147e2799c2"><path d="M 232 181 L 245 181 L 245 193 L 232 193 Z M 232 181 " clip-rule="nonzero"/></clipPath><clipPath id="a2c598e035"><path d="M 242.441406 179.207031 L 246.445312 188.097656 L 234.816406 193.332031 L 230.816406 184.441406 Z M 242.441406 179.207031 " clip-rule="nonzero"/></clipPath><clipPath id="63abef24c9"><path d="M 242.441406 179.207031 L 246.445312 188.097656 L 234.816406 193.332031 L 230.816406 184.441406 Z M 242.441406 179.207031 " clip-rule="nonzero"/></clipPath><clipPath id="b0fdffd743"><path d="M 234 173 L 246 173 L 246 183 L 234 183 Z M 234 173 " clip-rule="nonzero"/></clipPath><clipPath id="0d07494dcb"><path d="M 241.203125 170.925781 L 246.585938 179.941406 L 238.214844 184.9375 L 232.832031 175.921875 Z M 241.203125 170.925781 " clip-rule="nonzero"/></clipPath><clipPath id="7da3417559"><path d="M 241.203125 170.925781 L 246.585938 179.941406 L 238.214844 184.9375 L 232.832031 175.921875 Z M 241.203125 170.925781 " clip-rule="nonzero"/></clipPath><clipPath id="b681497c27"><path d="M 238 176 L 259 176 L 259 191 L 238 191 Z M 238 176 " clip-rule="nonzero"/></clipPath><clipPath id="b6f9cd6484"><path d="M 236.386719 183.554688 L 255.578125 173.320312 L 260.519531 182.585938 L 241.328125 192.820312 Z M 236.386719 183.554688 " clip-rule="nonzero"/></clipPath><clipPath id="19ff0419cf"><path d="M 236.386719 183.554688 L 255.578125 173.320312 L 260.519531 182.585938 L 241.328125 192.820312 Z M 236.386719 183.554688 " clip-rule="nonzero"/></clipPath><clipPath id="01c4749af5"><path d="M 265.605469 168.046875 L 270.855469 168.046875 L 270.855469 173.296875 L 265.605469 173.296875 Z M 265.605469 168.046875 " clip-rule="nonzero"/></clipPath><clipPath id="3074a154dc"><path d="M 243.09375 180.816406 L 248.34375 180.816406 L 248.34375 186.066406 L 243.09375 186.066406 Z M 243.09375 180.816406 " clip-rule="nonzero"/></clipPath><clipPath id="8e2b5e338d"><path d="M 207 170 L 218 170 L 218 214 L 207 214 Z M 207 170 " clip-rule="nonzero"/></clipPath><clipPath id="1e223ebbc4"><path d="M 197.324219 173.300781 L 211.121094 169.738281 L 222.175781 212.585938 L 208.378906 216.148438 Z M 197.324219 173.300781 " clip-rule="nonzero"/></clipPath><clipPath id="f539f4c508"><path d="M 197.324219 173.300781 L 211.121094 169.738281 L 222.175781 212.585938 L 208.378906 216.148438 Z M 197.324219 173.300781 " clip-rule="nonzero"/></clipPath><clipPath id="83131dd6c2"><path d="M 185.773438 164.25 L 196 164.25 L 196 213.75 L 185.773438 213.75 Z M 185.773438 164.25 " clip-rule="nonzero"/></clipPath><clipPath id="30acc061e1"><path d="M 186 149 L 200 149 L 200 161 L 186 161 Z M 186 149 " clip-rule="nonzero"/></clipPath><clipPath id="7232c3e591"><path d="M 188.941406 147.390625 L 200.472656 150.703125 L 197.160156 162.238281 L 185.625 158.921875 Z M 188.941406 147.390625 " clip-rule="nonzero"/></clipPath><clipPath id="4d784ba9cb"><path d="M 188.941406 147.390625 L 200.472656 150.703125 L 197.160156 162.238281 L 185.625 158.921875 Z M 188.941406 147.390625 " clip-rule="nonzero"/></clipPath><clipPath id="b13e390ecb"><path d="M 171 149 L 185 149 L 185 161 L 171 161 Z M 171 149 " clip-rule="nonzero"/></clipPath><clipPath id="f6f8b992a6"><path d="M 174.730469 147.386719 L 186.066406 153.230469 L 180.910156 163.230469 L 169.578125 157.386719 Z M 174.730469 147.386719 " clip-rule="nonzero"/></clipPath><clipPath id="6fe004903e"><path d="M 174.730469 147.386719 L 186.066406 153.230469 L 180.910156 163.230469 L 169.578125 157.386719 Z M 174.730469 147.386719 " clip-rule="nonzero"/></clipPath><clipPath id="1c48f8d894"><path d="M 186 158 L 200 158 L 200 171 L 186 171 Z M 186 158 " clip-rule="nonzero"/></clipPath><clipPath id="56c1f0efe5"><path d="M 190.015625 156.519531 L 201.347656 162.359375 L 196.195312 172.359375 L 184.863281 166.519531 Z M 190.015625 156.519531 " clip-rule="nonzero"/></clipPath><clipPath id="3f4c88fd26"><path d="M 190.015625 156.519531 L 201.347656 162.359375 L 196.195312 172.359375 L 184.863281 166.519531 Z M 190.015625 156.519531 " clip-rule="nonzero"/></clipPath><clipPath id="8c0b10aee6"><path d="M 178 158.648438 L 189.964844 158.648438 L 189.964844 173.648438 L 178 173.648438 Z M 178 158.648438 " clip-rule="nonzero"/></clipPath><clipPath id="923ffbff8d"><path d="M 171.296875 157 L 183.296875 157 L 183.296875 168.980469 L 171.296875 168.980469 Z M 171.296875 157 " clip-rule="nonzero"/></clipPath><clipPath id="d977adfdb3"><path d="M 178 144 L 192 144 L 192 170 L 178 170 Z M 178 144 " clip-rule="nonzero"/></clipPath><clipPath id="45b43b387f"><path d="M 177.964844 169.277344 L 179.199219 143.804688 L 191.933594 144.421875 L 190.699219 169.894531 Z M 177.964844 169.277344 " clip-rule="nonzero"/></clipPath><clipPath id="973a895d06"><path d="M 177.964844 169.277344 L 179.199219 143.804688 L 191.933594 144.421875 L 190.699219 169.894531 Z M 177.964844 169.277344 " clip-rule="nonzero"/></clipPath><clipPath id="c2cfcafd60"><path d="M 216 172 L 230 172 L 230 184 L 216 184 Z M 216 172 " clip-rule="nonzero"/></clipPath><clipPath id="7f172af1d3"><path d="M 225.714844 169.765625 L 230.464844 180.785156 L 219.441406 185.535156 L 214.695312 174.511719 Z M 225.714844 169.765625 " clip-rule="nonzero"/></clipPath><clipPath id="61f47ecd2e"><path d="M 225.714844 169.765625 L 230.464844 180.785156 L 219.441406 185.535156 L 214.695312 174.511719 Z M 225.714844 169.765625 " clip-rule="nonzero"/></clipPath><clipPath id="41a6b87013"><path d="M 210 158 L 222 158 L 222 171 L 210 171 Z M 210 158 " clip-rule="nonzero"/></clipPath><clipPath id="bc4c6f0602"><path d="M 221.335938 157.628906 L 222.132812 170.355469 L 210.902344 171.054688 L 210.109375 158.332031 Z M 221.335938 157.628906 " clip-rule="nonzero"/></clipPath><clipPath id="0c8da67544"><path d="M 221.335938 157.628906 L 222.132812 170.355469 L 210.902344 171.054688 L 210.109375 158.332031 Z M 221.335938 157.628906 " clip-rule="nonzero"/></clipPath><clipPath id="1ef989c9e4"><path d="M 209 175 L 220 175 L 220 189 L 209 189 Z M 209 175 " clip-rule="nonzero"/></clipPath><clipPath id="f4dbf31945"><path d="M 219.761719 175.335938 L 220.558594 188.0625 L 209.328125 188.761719 L 208.535156 176.039062 Z M 219.761719 175.335938 " clip-rule="nonzero"/></clipPath><clipPath id="91172a171a"><path d="M 219.761719 175.335938 L 220.558594 188.0625 L 209.328125 188.761719 L 208.535156 176.039062 Z M 219.761719 175.335938 " clip-rule="nonzero"/></clipPath><clipPath id="3f16afe84c"><path d="M 199 171 L 215 171 L 215 184 L 199 184 Z M 199 171 " clip-rule="nonzero"/></clipPath><clipPath id="b14099d72d"><path d="M 211.335938 168.8125 L 216.261719 179.753906 L 202.585938 185.910156 L 197.65625 174.96875 Z M 211.335938 168.8125 " clip-rule="nonzero"/></clipPath><clipPath id="89c8d3bfb2"><path d="M 211.335938 168.8125 L 216.261719 179.753906 L 202.585938 185.910156 L 197.65625 174.96875 Z M 211.335938 168.8125 " clip-rule="nonzero"/></clipPath><clipPath id="44926e3094"><path d="M 201 162 L 215 162 L 215 174 L 201 174 Z M 201 162 " clip-rule="nonzero"/></clipPath><clipPath id="da1fd1e7fd"><path d="M 209.878906 159.046875 L 216.03125 169.351562 L 205.730469 175.503906 L 199.578125 165.199219 Z M 209.878906 159.046875 " clip-rule="nonzero"/></clipPath><clipPath id="141915acc6"><path d="M 209.878906 159.046875 L 216.03125 169.351562 L 205.730469 175.503906 L 199.578125 165.199219 Z M 209.878906 159.046875 " clip-rule="nonzero"/></clipPath><clipPath id="8653e778ef"><path d="M 206 165 L 230 165 L 230 182 L 206 182 Z M 206 165 " clip-rule="nonzero"/></clipPath><clipPath id="6ca356f7ce"><path d="M 204.199219 173.945312 L 226.699219 161.945312 L 232.699219 173.199219 L 210.195312 185.195312 Z M 204.199219 173.945312 " clip-rule="nonzero"/></clipPath><clipPath id="ba2bc043df"><path d="M 204.199219 173.945312 L 226.699219 161.945312 L 232.699219 173.199219 L 210.195312 185.195312 Z M 204.199219 173.945312 " clip-rule="nonzero"/></clipPath><clipPath id="16ba4e7b22"><path d="M 180.855469 155.738281 L 187.605469 155.738281 L 187.605469 162.488281 L 180.855469 162.488281 Z M 180.855469 155.738281 " clip-rule="nonzero"/></clipPath><clipPath id="f8884e2c1c"><path d="M 212.109375 170.71875 L 218.859375 170.71875 L 218.859375 177.46875 L 212.109375 177.46875 Z M 212.109375 170.71875 " clip-rule="nonzero"/></clipPath></defs><g fill="#f9afa6" fill-opacity="1"><g transform="translate(93.704809, 214.205612)"><g><path d="M 6.40625 0 L 7.125 0 C 9.3125 0 10.515625 -1.203125 10.515625 -3.40625 L 10.515625 -24.3125 C 10.515625 -26.515625 9.3125 -27.71875 7.125 -27.71875 L 6.40625 -27.71875 C 4.203125 -27.71875 3 -26.515625 3 -24.3125 L 3 -3.40625 C 3 -1.203125 4.203125 0 6.40625 0 Z M 6.40625 0 "/></g></g></g><g fill="#f9afa6" fill-opacity="1"><g transform="translate(109.623465, 214.205612)"><g><path d="M 5.953125 0 L 6.71875 0 C 8.921875 0 10.078125 -1.28125 10.125 -3.640625 C 10.234375 -9.046875 11 -10.765625 12.765625 -10.765625 C 14.640625 -10.765625 15.84375 -8.875 16.359375 -3.515625 C 16.59375 -1.203125 17.71875 0 19.875 0 L 21.359375 0 C 23.640625 0 24.796875 -1.3125 24.59375 -3.5625 L 24.515625 -4.71875 C 23.59375 -10.28125 22.203125 -13.765625 19.484375 -15.203125 L 19.484375 -15.359375 C 22.203125 -16.875 23.5625 -19.203125 24.515625 -24.15625 C 24.796875 -26.40625 23.59375 -27.6875 21.3125 -27.6875 L 20.28125 -27.6875 C 18.078125 -27.6875 16.953125 -26.40625 16.921875 -24 C 16.796875 -18.5625 15.875 -17.046875 14.234375 -17.046875 C 12.484375 -17.046875 11.953125 -18.640625 11.203125 -24.234375 C 10.921875 -26.515625 9.71875 -27.6875 7.59375 -27.6875 L 6 -27.6875 C 3.71875 -27.6875 2.515625 -26.40625 2.796875 -24.15625 C 3.4375 -19.15625 5.046875 -16.953125 7.484375 -15.359375 L 7.484375 -15.203125 C 4.921875 -13.796875 3.3125 -10.40625 2.796875 -4.71875 L 2.71875 -3.5625 C 2.515625 -1.3125 3.6875 0 5.953125 0 Z M 5.953125 0 "/></g></g></g><g fill="#f9afa6" fill-opacity="1"><g transform="translate(139.340754, 214.205612)"><g><path d="M 6.40625 0 L 7.125 0 C 9.3125 0 10.515625 -1.203125 10.515625 -3.40625 L 10.515625 -24.3125 C 10.515625 -26.515625 9.3125 -27.71875 7.125 -27.71875 L 6.40625 -27.71875 C 4.203125 -27.71875 3 -26.515625 3 -24.3125 L 3 -3.40625 C 3 -1.203125 4.203125 0 6.40625 0 Z M 6.40625 0 "/></g></g></g><g fill="#f9afa6" fill-opacity="1"><g transform="translate(155.25941, 214.205612)"><g><path d="M 12.765625 -28.125 C 6.84375 -28.125 3.359375 -23.5625 2.4375 -9.40625 C 2.3125 -7.5625 2.28125 -5.59375 2.234375 -3.4375 C 2.203125 -1.203125 3.40625 0 5.5625 0 C 7.71875 0 8.921875 -1.203125 8.921875 -3.40625 C 8.921875 -4.40625 8.953125 -5.3125 8.953125 -6.203125 L 16.046875 -6.203125 C 16.078125 -5.203125 16.078125 -4.203125 16.078125 -3.125 C 16.078125 -1.078125 17.28125 0 19.484375 0 L 20.078125 0 C 22.28125 0 23.484375 -1.28125 23.4375 -3.59375 C 23.15625 -22.3125 19.71875 -28.125 12.765625 -28.125 Z M 9.046875 -10.953125 C 9.3125 -19.921875 10.15625 -22.484375 12.203125 -22.484375 C 14.203125 -22.484375 15.40625 -19.921875 15.875 -10.953125 Z M 9.046875 -10.953125 "/></g></g></g><path stroke-linecap="butt" transform="matrix(-0.00742815, -0.749963, 0.749963, -0.00742815, 87.352052, 227.557574)" fill="none" stroke-linejoin="miter" d="M -0.00007345 2.499469 L 73.586878 2.499123 " stroke="#fbdcd9" stroke-width="5" stroke-opacity="1" stroke-miterlimit="4"/><path stroke-linecap="butt" transform="matrix(-0.749993, -0.00329617, 0.00329617, -0.749993, 153.925482, 228.548392)" fill="none" stroke-linejoin="miter" d="M 0.000181087 2.502047 L 88.626028 2.497962 " stroke="#fbdcd9" stroke-width="5" stroke-opacity="1" stroke-miterlimit="4"/><path stroke-linecap="butt" transform="matrix(0.53033, -0.53033, 0.53033, 0.53033, 86.819478, 172.160276)" fill="none" stroke-linejoin="miter" d="M 0.000899577 2.497645 L 62.248397 2.497645 " stroke="#fbdcd9" stroke-width="5" stroke-opacity="1" stroke-miterlimit="4"/><path stroke-linecap="butt" transform="matrix(0.53033, 0.53033, -0.53033, 0.53033, 120.264825, 139.159371)" fill="none" stroke-linejoin="miter" d="M -0.00218776 2.50064 L 62.234261 2.496957 " stroke="#fbdcd9" stroke-width="5" stroke-opacity="1" stroke-miterlimit="4"/><g clip-path="url(#002dd91004)"><g clip-path="url(#e50adf9d59)"><g clip-path="url(#294b3123ca)"><path fill="#517564" d="M 268.886719 213.804688 C 268.644531 213.867188 268.355469 213.746094 268.171875 213.535156 C 256.746094 195.550781 263.167969 177.871094 263.242188 177.65625 C 263.363281 177.367188 263.710938 177.214844 264.058594 177.316406 C 264.410156 177.421875 264.5625 177.769531 264.398438 178.132812 C 264.371094 178.269531 258.125 195.390625 269.289062 212.859375 C 269.488281 213.132812 269.402344 213.542969 269.128906 213.742188 C 269.070312 213.757812 269.007812 213.773438 268.886719 213.804688 Z M 268.886719 213.804688 " fill-opacity="1" fill-rule="nonzero"/></g></g></g><g clip-path="url(#15d37293a4)"><path fill="#517564" d="M 248.164062 213.304688 C 248.445312 213.304688 248.726562 213.097656 248.867188 212.816406 C 256.214844 190.132812 244.316406 172.773438 244.175781 172.5625 C 243.964844 172.28125 243.542969 172.210938 243.195312 172.421875 C 242.84375 172.632812 242.773438 173.050781 243.054688 173.402344 C 243.125 173.542969 254.675781 190.34375 247.464844 212.398438 C 247.324219 212.746094 247.535156 213.167969 247.886719 213.304688 C 247.957031 213.304688 248.023438 213.304688 248.164062 213.304688 Z M 248.164062 213.304688 " fill-opacity="1" fill-rule="nonzero"/></g><g clip-path="url(#60563873f7)"><g clip-path="url(#f8533b04cb)"><g clip-path="url(#0633f22aa9)"><path fill="#fbdcd9" d="M 277.035156 162.980469 C 276.066406 163.25 274.945312 163.878906 274.074219 164.25 C 273.195312 164.613281 272.546875 164.726562 271.925781 165.347656 C 271.308594 165.964844 270.695312 167.101562 270.800781 168.273438 C 270.917969 169.4375 271.738281 170.640625 273.132812 171.339844 C 274.527344 172.046875 276.503906 172.257812 277.902344 171.828125 C 279.296875 171.40625 280.117188 170.332031 280.683594 169.101562 C 281.253906 167.871094 281.554688 166.480469 281.347656 165.421875 C 281.152344 164.363281 280.429688 163.644531 279.65625 163.230469 C 278.871094 162.816406 278.019531 162.714844 277.035156 162.980469 Z M 277.035156 162.980469 " fill-opacity="1" fill-rule="evenodd"/></g></g></g><g clip-path="url(#129e61770b)"><g clip-path="url(#34a4f8aa14)"><g clip-path="url(#c3b547861d)"><path fill="#fbdcd9" d="M 265.421875 163.746094 C 264.199219 162.925781 262.859375 162.492188 261.542969 162.816406 C 260.242188 163.132812 258.976562 164.179688 258.253906 165.371094 C 257.535156 166.546875 257.367188 167.859375 258.289062 169.238281 C 259.21875 170.625 261.25 172.082031 263.054688 172.410156 C 264.863281 172.753906 266.464844 171.960938 267.378906 170.882812 C 268.296875 169.792969 268.53125 168.40625 268.117188 167.109375 C 267.695312 165.796875 266.628906 164.574219 265.421875 163.746094 Z M 265.421875 163.746094 " fill-opacity="1" fill-rule="evenodd"/></g></g></g><g clip-path="url(#80bbd51c25)"><g clip-path="url(#8a93d20276)"><g clip-path="url(#465886708e)"><path fill="#fbdcd9" d="M 278.378906 171.488281 C 277.15625 170.667969 275.816406 170.234375 274.5 170.558594 C 273.199219 170.875 271.933594 171.921875 271.210938 173.109375 C 270.492188 174.289062 270.324219 175.601562 271.246094 176.980469 C 272.175781 178.363281 274.207031 179.824219 276.011719 180.148438 C 277.824219 180.492188 279.421875 179.703125 280.335938 178.621094 C 281.253906 177.535156 281.488281 176.148438 281.074219 174.851562 C 280.652344 173.535156 279.585938 172.3125 278.378906 171.488281 Z M 278.378906 171.488281 " fill-opacity="1" fill-rule="evenodd"/></g></g></g><g clip-path="url(#cb4837d0ac)"><path fill="#fbdcd9" d="M 269.148438 170.785156 C 267.933594 170.519531 266.867188 170.726562 265.949219 171.214844 C 265.03125 171.6875 264.246094 172.457031 263.773438 174.144531 C 263.316406 175.832031 263.152344 178.46875 263.773438 180.226562 C 264.410156 182.003906 265.816406 182.921875 267.253906 183.234375 C 268.703125 183.542969 270.167969 183.246094 271.160156 182.65625 C 272.136719 182.0625 272.640625 181.175781 272.875 179.445312 C 273.113281 177.710938 273.082031 175.136719 272.402344 173.480469 C 271.707031 171.808594 270.359375 171.066406 269.148438 170.785156 Z M 269.148438 170.785156 " fill-opacity="1" fill-rule="evenodd"/></g><g clip-path="url(#ef9fe14515)"><path fill="#fbdcd9" d="M 262.453125 169.765625 C 261.597656 170.292969 260.691406 171.210938 259.960938 171.804688 C 259.214844 172.398438 258.621094 172.6875 258.195312 173.453125 C 257.773438 174.21875 257.5 175.480469 257.921875 176.578125 C 258.355469 177.664062 259.480469 178.59375 261.011719 178.878906 C 262.546875 179.175781 264.503906 178.832031 265.730469 178.03125 C 266.953125 177.242188 267.445312 175.984375 267.652344 174.644531 C 267.859375 173.304688 267.765625 171.882812 267.273438 170.921875 C 266.792969 169.960938 265.898438 169.46875 265.042969 169.285156 C 264.171875 169.101562 263.324219 169.242188 262.453125 169.765625 Z M 262.453125 169.765625 " fill-opacity="1" fill-rule="evenodd"/></g><g clip-path="url(#98e8b0c9d3)"><g clip-path="url(#9deb3dcb1e)"><g clip-path="url(#017b4bdf3e)"><path fill="#fbdcd9" d="M 269.53125 158.410156 C 269.882812 158.425781 270.226562 158.511719 270.5625 158.664062 C 270.902344 158.820312 271.226562 159.039062 271.535156 159.324219 C 271.847656 159.605469 272.140625 159.949219 272.414062 160.355469 C 272.683594 160.757812 272.933594 161.214844 273.15625 161.722656 C 273.382812 162.230469 273.578125 162.78125 273.742188 163.375 C 273.910156 163.96875 274.046875 164.589844 274.148438 165.246094 C 274.25 165.902344 274.320312 166.574219 274.355469 167.265625 C 274.390625 167.957031 274.390625 168.652344 274.355469 169.355469 C 274.324219 170.058594 274.253906 170.75 274.152344 171.433594 C 274.050781 172.121094 273.917969 172.785156 273.753906 173.425781 C 273.585938 174.066406 273.390625 174.675781 273.167969 175.25 C 272.945312 175.824219 272.699219 176.351562 272.425781 176.835938 C 272.152344 177.320312 271.863281 177.75 271.550781 178.125 C 271.242188 178.5 270.917969 178.816406 270.582031 179.070312 C 270.242188 179.320312 269.898438 179.507812 269.546875 179.628906 C 269.199219 179.75 268.847656 179.800781 268.496094 179.785156 C 268.144531 179.765625 267.800781 179.679688 267.464844 179.527344 C 267.125 179.375 266.800781 179.15625 266.492188 178.871094 C 266.179688 178.585938 265.886719 178.242188 265.613281 177.839844 C 265.339844 177.433594 265.09375 176.976562 264.871094 176.46875 C 264.644531 175.960938 264.449219 175.410156 264.28125 174.820312 C 264.117188 174.226562 263.980469 173.601562 263.878906 172.945312 C 263.777344 172.292969 263.707031 171.617188 263.671875 170.925781 C 263.636719 170.234375 263.636719 169.539062 263.671875 168.835938 C 263.703125 168.136719 263.773438 167.441406 263.875 166.757812 C 263.976562 166.074219 264.109375 165.410156 264.273438 164.769531 C 264.441406 164.125 264.636719 163.519531 264.859375 162.945312 C 265.082031 162.371094 265.328125 161.839844 265.601562 161.355469 C 265.875 160.871094 266.164062 160.441406 266.476562 160.066406 C 266.785156 159.691406 267.109375 159.378906 267.445312 159.125 C 267.785156 158.871094 268.128906 158.683594 268.480469 158.566406 C 268.828125 158.445312 269.179688 158.394531 269.53125 158.410156 Z M 269.53125 158.410156 " fill-opacity="1" fill-rule="nonzero"/></g></g></g><g clip-path="url(#6a8c235401)"><g clip-path="url(#41f8ec0ae9)"><g clip-path="url(#a891e56ae5)"><path fill="#fbdcd9" d="M 255.976562 184.824219 C 255.152344 184.246094 253.953125 183.777344 253.117188 183.339844 C 252.273438 182.890625 251.777344 182.457031 250.90625 182.371094 C 250.03125 182.289062 248.769531 182.535156 247.925781 183.355469 C 247.101562 184.1875 246.691406 185.585938 247.035156 187.105469 C 247.371094 188.632812 248.460938 190.292969 249.679688 191.101562 C 250.890625 191.914062 252.242188 191.867188 253.554688 191.527344 C 254.863281 191.1875 256.132812 190.539062 256.820312 189.707031 C 257.511719 188.886719 257.613281 187.871094 257.441406 187.011719 C 257.265625 186.140625 256.804688 185.414062 255.976562 184.824219 Z M 255.976562 184.824219 " fill-opacity="1" fill-rule="evenodd"/></g></g></g><g clip-path="url(#e63c27a12e)"><g clip-path="url(#00740fd5ca)"><g clip-path="url(#11e6187953)"><path fill="#fbdcd9" d="M 251.097656 175.449219 C 251.175781 173.980469 250.859375 172.605469 249.90625 171.640625 C 248.96875 170.6875 247.421875 170.136719 246.027344 170.125 C 244.648438 170.113281 243.4375 170.640625 242.722656 172.136719 C 242.011719 173.648438 241.800781 176.140625 242.445312 177.855469 C 243.078125 179.585938 244.582031 180.554688 245.972656 180.785156 C 247.378906 181.015625 248.691406 180.507812 249.59375 179.484375 C 250.503906 178.453125 251.003906 176.90625 251.097656 175.449219 Z M 251.097656 175.449219 " fill-opacity="1" fill-rule="evenodd"/></g></g></g><g clip-path="url(#0a9678fb0f)"><g clip-path="url(#9fd2efcfae)"><g clip-path="url(#f50bb8de43)"><path fill="#fbdcd9" d="M 249.765625 190.460938 C 249.84375 188.992188 249.527344 187.621094 248.574219 186.652344 C 247.636719 185.699219 246.085938 185.148438 244.695312 185.136719 C 243.316406 185.125 242.101562 185.652344 241.390625 187.152344 C 240.679688 188.660156 240.46875 191.152344 241.113281 192.871094 C 241.746094 194.601562 243.246094 195.566406 244.640625 195.796875 C 246.046875 196.027344 247.359375 195.519531 248.257812 194.5 C 249.171875 193.464844 249.671875 191.917969 249.765625 190.460938 Z M 249.765625 190.460938 " fill-opacity="1" fill-rule="evenodd"/></g></g></g><g clip-path="url(#147e2799c2)"><g clip-path="url(#a2c598e035)"><g clip-path="url(#63abef24c9)"><path fill="#fbdcd9" d="M 244.65625 184.78125 C 244.398438 183.566406 243.773438 182.679688 242.953125 182.042969 C 242.144531 181.402344 241.117188 181 239.386719 181.261719 C 237.660156 181.535156 235.191406 182.46875 233.839844 183.761719 C 232.480469 185.070312 232.222656 186.730469 232.527344 188.164062 C 232.839844 189.617188 233.710938 190.832031 234.660156 191.492188 C 235.597656 192.140625 236.617188 192.234375 238.292969 191.738281 C 239.96875 191.242188 242.304688 190.160156 243.535156 188.855469 C 244.777344 187.535156 244.898438 186.003906 244.65625 184.78125 Z M 244.65625 184.78125 " fill-opacity="1" fill-rule="evenodd"/></g></g></g><g clip-path="url(#b0fdffd743)"><g clip-path="url(#0d07494dcb)"><g clip-path="url(#7da3417559)"><path fill="#fbdcd9" d="M 243.171875 175.523438 C 242.277344 175.054688 241.027344 174.746094 240.140625 174.425781 C 239.25 174.089844 238.699219 173.726562 237.824219 173.753906 C 236.949219 173.785156 235.726562 174.195312 235 175.121094 C 234.289062 176.050781 234.066406 177.492188 234.609375 178.953125 C 235.140625 180.425781 236.4375 181.929688 237.753906 182.570312 C 239.058594 183.214844 240.394531 182.992188 241.648438 182.484375 C 242.902344 181.972656 244.074219 181.167969 244.648438 180.253906 C 245.226562 179.347656 245.191406 178.328125 244.910156 177.496094 C 244.621094 176.65625 244.070312 176 243.171875 175.523438 Z M 243.171875 175.523438 " fill-opacity="1" fill-rule="evenodd"/></g></g></g><g clip-path="url(#b681497c27)"><g clip-path="url(#b6f9cd6484)"><g clip-path="url(#19ff0419cf)"><path fill="#fbdcd9" d="M 257.785156 178.207031 C 257.953125 178.515625 258.054688 178.855469 258.097656 179.222656 C 258.136719 179.59375 258.117188 179.984375 258.03125 180.394531 C 257.945312 180.808594 257.800781 181.234375 257.59375 181.675781 C 257.386719 182.117188 257.121094 182.566406 256.800781 183.019531 C 256.480469 183.472656 256.105469 183.921875 255.683594 184.367188 C 255.257812 184.816406 254.792969 185.25 254.285156 185.675781 C 253.773438 186.097656 253.230469 186.503906 252.65625 186.886719 C 252.082031 187.273438 251.480469 187.628906 250.863281 187.960938 C 250.242188 188.292969 249.613281 188.589844 248.972656 188.851562 C 248.332031 189.117188 247.695312 189.339844 247.058594 189.527344 C 246.421875 189.714844 245.800781 189.859375 245.191406 189.960938 C 244.585938 190.066406 244.003906 190.125 243.449219 190.136719 C 242.894531 190.152344 242.375 190.121094 241.894531 190.046875 C 241.414062 189.976562 240.976562 189.859375 240.585938 189.699219 C 240.195312 189.539062 239.859375 189.339844 239.578125 189.097656 C 239.292969 188.859375 239.070312 188.585938 238.90625 188.273438 C 238.738281 187.964844 238.636719 187.625 238.59375 187.257812 C 238.554688 186.886719 238.574219 186.496094 238.660156 186.085938 C 238.746094 185.671875 238.890625 185.246094 239.097656 184.804688 C 239.304688 184.363281 239.566406 183.914062 239.890625 183.460938 C 240.210938 183.007812 240.582031 182.558594 241.007812 182.113281 C 241.429688 181.664062 241.898438 181.230469 242.40625 180.804688 C 242.917969 180.382812 243.460938 179.976562 244.035156 179.59375 C 244.609375 179.207031 245.207031 178.851562 245.828125 178.519531 C 246.449219 178.191406 247.078125 177.890625 247.71875 177.628906 C 248.359375 177.363281 248.996094 177.140625 249.632812 176.953125 C 250.269531 176.765625 250.890625 176.621094 251.496094 176.519531 C 252.105469 176.417969 252.6875 176.359375 253.242188 176.34375 C 253.796875 176.328125 254.316406 176.359375 254.796875 176.433594 C 255.277344 176.507812 255.714844 176.625 256.105469 176.78125 C 256.496094 176.941406 256.832031 177.140625 257.113281 177.382812 C 257.398438 177.621094 257.621094 177.894531 257.785156 178.207031 Z M 257.785156 178.207031 " fill-opacity="1" fill-rule="nonzero"/></g></g></g><g clip-path="url(#01c4749af5)"><path fill="#f9afa6" d="M 268.34375 168.046875 C 268.109375 168.058594 267.761719 168.136719 267.492188 168.246094 C 267.046875 168.425781 266.621094 168.769531 266.335938 169.175781 C 266.210938 169.355469 266.042969 169.636719 265.980469 169.765625 C 265.820312 170.109375 265.695312 170.59375 265.648438 171.070312 C 265.605469 171.492188 265.722656 172.058594 265.933594 172.460938 C 266.1875 172.945312 266.410156 173.144531 266.898438 173.339844 C 267.222656 173.46875 267.804688 173.601562 268.195312 173.632812 C 268.394531 173.648438 268.441406 173.648438 268.65625 173.632812 C 268.890625 173.617188 269.074219 173.578125 269.316406 173.507812 C 269.773438 173.367188 270.0625 173.207031 270.375 172.910156 C 270.566406 172.730469 270.761719 172.464844 270.894531 172.191406 C 270.996094 171.984375 271.125 171.597656 271.175781 171.359375 C 271.210938 171.195312 271.214844 171.144531 271.214844 170.867188 C 271.21875 170.597656 271.214844 170.539062 271.183594 170.398438 C 271.109375 170.058594 270.980469 169.726562 270.824219 169.496094 C 270.691406 169.296875 270.457031 168.992188 270.351562 168.882812 C 270.105469 168.621094 269.667969 168.339844 269.34375 168.234375 C 269.167969 168.175781 268.59375 168.058594 268.4375 168.050781 C 268.410156 168.046875 268.378906 168.046875 268.34375 168.046875 Z M 268.34375 168.046875 " fill-opacity="1" fill-rule="nonzero"/></g><g clip-path="url(#3074a154dc)"><path fill="#f9afa6" d="M 245.832031 180.820312 C 245.597656 180.828125 245.25 180.90625 244.980469 181.015625 C 244.535156 181.195312 244.109375 181.539062 243.828125 181.945312 C 243.699219 182.125 243.53125 182.40625 243.46875 182.539062 C 243.308594 182.878906 243.183594 183.367188 243.136719 183.839844 C 243.09375 184.265625 243.210938 184.832031 243.421875 185.230469 C 243.675781 185.714844 243.898438 185.917969 244.386719 186.109375 C 244.710938 186.242188 245.292969 186.371094 245.683594 186.402344 C 245.882812 186.421875 245.929688 186.421875 246.148438 186.402344 C 246.378906 186.386719 246.5625 186.351562 246.804688 186.277344 C 247.261719 186.140625 247.550781 185.976562 247.863281 185.683594 C 248.058594 185.5 248.25 185.234375 248.382812 184.960938 C 248.484375 184.753906 248.617188 184.371094 248.667969 184.128906 C 248.699219 183.964844 248.707031 183.914062 248.707031 183.640625 C 248.707031 183.371094 248.703125 183.3125 248.671875 183.167969 C 248.597656 182.828125 248.46875 182.5 248.3125 182.265625 C 248.179688 182.066406 247.945312 181.765625 247.84375 181.652344 C 247.59375 181.390625 247.15625 181.109375 246.832031 181.003906 C 246.65625 180.949219 246.082031 180.832031 245.925781 180.820312 C 245.898438 180.820312 245.867188 180.816406 245.832031 180.820312 Z M 245.832031 180.820312 " fill-opacity="1" fill-rule="nonzero"/></g><g fill="#f9afa6" fill-opacity="1"><g transform="translate(159.664476, 230.798392)"><g><path d="M 5.734375 0.15625 C 7.53125 0.15625 8.53125 -0.390625 9.203125 -1.09375 C 9.484375 -1.40625 9.5625 -1.8125 9.5625 -2.484375 L 9.5625 -4.65625 C 9.5625 -5.53125 9.09375 -6.015625 8.203125 -6.015625 L 6.75 -6.015625 C 5.875 -6.015625 5.390625 -5.640625 5.390625 -4.984375 C 5.390625 -4.34375 5.875 -3.96875 6.75 -3.96875 L 7.015625 -3.96875 L 7.015625 -2.734375 C 7.015625 -2.3125 6.390625 -2.078125 5.640625 -2.078125 C 4.609375 -2.078125 3.734375 -2.734375 3.734375 -5.546875 C 3.734375 -8.15625 4.171875 -9.09375 5.515625 -9.09375 C 6.046875 -9.09375 6.40625 -8.9375 6.546875 -8.578125 C 6.859375 -7.765625 6.96875 -7.3125 7.8125 -7.3125 L 8 -7.3125 C 8.875 -7.3125 9.484375 -7.8125 9.328125 -8.6875 C 8.984375 -10.375 7.65625 -11.25 5.5 -11.25 C 2.359375 -11.25 0.796875 -9.34375 0.796875 -5.546875 C 0.796875 -1.75 2.3125 0.15625 5.734375 0.15625 Z M 5.734375 0.15625 "/></g></g></g><g fill="#f9afa6" fill-opacity="1"><g transform="translate(173.229978, 230.798392)"><g><path d="M 2.5625 0 L 2.84375 0 C 3.734375 0 4.203125 -0.484375 4.203125 -1.359375 C 4.1875 -2.234375 4.1875 -3.125 4.1875 -4 L 4.78125 -4 C 6.078125 -4 6.515625 -2.8125 6.734375 -1.296875 C 6.859375 -0.4375 7.328125 0 8.171875 0 L 8.6875 0 C 9.625 0 10.125 -0.578125 9.921875 -1.53125 C 9.46875 -3.515625 8.8125 -4.515625 7.765625 -4.828125 L 7.765625 -4.890625 C 9.125 -5.234375 9.953125 -6.3125 9.953125 -7.765625 C 9.953125 -10.09375 8.5625 -11.09375 5.3125 -11.09375 L 2.5625 -11.09375 C 1.6875 -11.09375 1.203125 -10.609375 1.203125 -9.734375 C 1.21875 -8.34375 1.234375 -6.9375 1.234375 -5.546875 C 1.234375 -4.140625 1.21875 -2.75 1.203125 -1.359375 C 1.203125 -0.484375 1.6875 0 2.5625 0 Z M 4.1875 -5.765625 C 4.1875 -7.265625 4.1875 -8.078125 4.203125 -8.875 L 4.96875 -8.875 C 6.296875 -8.875 6.859375 -8.46875 6.859375 -7.46875 C 6.859375 -6.25 6.234375 -5.765625 4.734375 -5.765625 Z M 4.1875 -5.765625 "/></g></g></g><g fill="#f9afa6" fill-opacity="1"><g transform="translate(187.339349, 230.798392)"><g><path d="M 5.5 0.15625 C 8.640625 0.15625 10.1875 -1.75 10.1875 -5.546875 C 10.1875 -9.34375 8.640625 -11.25 5.5 -11.25 C 2.375 -11.25 0.796875 -9.34375 0.796875 -5.546875 C 0.796875 -1.75 2.375 0.15625 5.5 0.15625 Z M 5.5 -2 C 4.234375 -2 3.859375 -2.828125 3.859375 -5.546875 C 3.859375 -8.25 4.234375 -9.09375 5.5 -9.09375 C 6.765625 -9.09375 7.140625 -8.25 7.140625 -5.546875 C 7.140625 -2.828125 6.765625 -2 5.5 -2 Z M 5.5 -2 "/></g></g></g><g fill="#f9afa6" fill-opacity="1"><g transform="translate(201.544702, 230.798392)"><g><path d="M 5.40625 0.15625 C 8.171875 0.15625 9.578125 -1.15625 9.578125 -3.796875 C 9.578125 -4.984375 9.5625 -6.1875 9.5625 -7.390625 C 9.5625 -8.171875 9.5625 -8.9375 9.5625 -9.734375 C 9.578125 -10.609375 9.109375 -11.09375 8.21875 -11.09375 L 8.203125 -11.09375 C 7.328125 -11.09375 6.828125 -10.609375 6.84375 -9.71875 C 6.859375 -8.9375 6.859375 -8.15625 6.859375 -7.390625 C 6.859375 -6.21875 6.84375 -5.0625 6.828125 -3.890625 C 6.828125 -2.5 6.46875 -2 5.40625 -2 C 4.484375 -2 4.140625 -2.5 4.125 -3.890625 C 4.109375 -5.0625 4.109375 -6.21875 4.109375 -7.390625 C 4.109375 -8.171875 4.109375 -8.9375 4.109375 -9.734375 C 4.125 -10.609375 3.640625 -11.09375 2.765625 -11.09375 L 2.484375 -11.09375 C 1.59375 -11.09375 1.140625 -10.609375 1.140625 -9.734375 C 1.140625 -9.328125 1.140625 -8.921875 1.140625 -8.53125 C 1.140625 -6.953125 1.125 -5.375 1.125 -3.796875 C 1.125 -1.15625 2.5625 0.15625 5.40625 0.15625 Z M 5.40625 0.15625 "/></g></g></g><g fill="#f9afa6" fill-opacity="1"><g transform="translate(215.446123, 230.798392)"><g><path d="M 2.5625 0 L 2.84375 0 C 3.734375 0 4.203125 -0.484375 4.203125 -1.359375 C 4.1875 -2.015625 4.1875 -2.671875 4.1875 -3.328125 L 4.78125 -3.328125 C 7.96875 -3.328125 9.953125 -4.96875 9.953125 -7.59375 C 9.953125 -10.046875 8.5625 -11.09375 5.3125 -11.09375 L 2.5625 -11.09375 C 1.6875 -11.09375 1.203125 -10.609375 1.203125 -9.734375 C 1.21875 -8.34375 1.234375 -6.9375 1.234375 -5.546875 C 1.234375 -4.140625 1.21875 -2.75 1.203125 -1.359375 C 1.203125 -0.484375 1.6875 0 2.5625 0 Z M 4.1875 -5.59375 C 4.1875 -7.1875 4.1875 -8.03125 4.203125 -8.875 L 4.96875 -8.875 C 6.296875 -8.875 6.859375 -8.46875 6.859375 -7.46875 C 6.859375 -6.140625 6.234375 -5.59375 4.734375 -5.59375 Z M 4.1875 -5.59375 "/></g></g></g><g fill="#f9afa6" fill-opacity="1"><g transform="translate(229.235578, 230.798392)"><g/></g></g><g fill="#f9afa6" fill-opacity="1"><g transform="translate(236.434609, 230.798392)"><g><path d="M 9.921875 -5.546875 C 9.921875 -6.9375 9.921875 -8.34375 9.921875 -9.734375 C 9.9375 -10.609375 9.453125 -11.09375 8.578125 -11.09375 L 8.265625 -11.09375 C 7.390625 -11.09375 6.90625 -10.609375 6.921875 -9.734375 C 6.9375 -8.671875 6.9375 -7.609375 6.9375 -6.5625 L 4.1875 -6.5625 C 4.1875 -7.609375 4.1875 -8.671875 4.1875 -9.734375 C 4.203125 -10.609375 3.734375 -11.09375 2.84375 -11.09375 L 2.5625 -11.09375 C 1.6875 -11.09375 1.203125 -10.609375 1.21875 -9.734375 C 1.21875 -8.34375 1.234375 -6.9375 1.234375 -5.546875 C 1.234375 -4.15625 1.21875 -2.765625 1.21875 -1.359375 C 1.203125 -0.484375 1.6875 0 2.5625 0 L 2.84375 0 C 3.734375 0 4.203125 -0.484375 4.1875 -1.359375 C 4.1875 -2.375 4.1875 -3.359375 4.1875 -4.359375 L 6.9375 -4.359375 C 6.9375 -3.359375 6.9375 -2.375 6.921875 -1.359375 C 6.90625 -0.484375 7.390625 0 8.265625 0 L 8.578125 0 C 9.453125 0 9.9375 -0.484375 9.921875 -1.359375 C 9.921875 -2.765625 9.90625 -4.15625 9.921875 -5.546875 Z M 9.921875 -5.546875 "/></g></g></g><g fill="#f9afa6" fill-opacity="1"><g transform="translate(250.767933, 230.798392)"><g><path d="M 5.5 0.15625 C 8.640625 0.15625 10.1875 -1.75 10.1875 -5.546875 C 10.1875 -9.34375 8.640625 -11.25 5.5 -11.25 C 2.375 -11.25 0.796875 -9.34375 0.796875 -5.546875 C 0.796875 -1.75 2.375 0.15625 5.5 0.15625 Z M 5.5 -2 C 4.234375 -2 3.859375 -2.828125 3.859375 -5.546875 C 3.859375 -8.25 4.234375 -9.09375 5.5 -9.09375 C 6.765625 -9.09375 7.140625 -8.25 7.140625 -5.546875 C 7.140625 -2.828125 6.765625 -2 5.5 -2 Z M 5.5 -2 "/></g></g></g><g fill="#f9afa6" fill-opacity="1"><g transform="translate(264.973288, 230.798392)"><g><path d="M 11.28125 -11.09375 L 9.640625 -11.09375 C 8.84375 -11.09375 8.359375 -10.71875 8.109375 -9.96875 L 6.953125 -6.390625 L 5.578125 -10.015625 C 5.3125 -10.75 4.8125 -11.09375 4.03125 -11.09375 L 2.5625 -11.09375 C 1.6875 -11.09375 1.203125 -10.609375 1.21875 -9.734375 C 1.234375 -6.921875 1.234375 -4.15625 1.21875 -1.359375 C 1.203125 -0.484375 1.6875 0 2.53125 0 C 3.375 0 3.84375 -0.484375 3.8125 -1.375 C 3.75 -3.046875 3.71875 -4.75 3.6875 -7.65625 L 3.765625 -7.65625 L 5.4375 -2.40625 C 5.6875 -1.640625 6.046875 -1.28125 6.59375 -1.28125 C 7.125 -1.28125 7.5 -1.640625 7.765625 -2.390625 L 9.578125 -7.65625 L 9.640625 -7.65625 L 9.65625 -5.546875 C 9.65625 -4.140625 9.640625 -2.75 9.625 -1.359375 C 9.625 -0.484375 10.109375 0 10.984375 0 L 11.28125 0 C 12.15625 0 12.640625 -0.484375 12.640625 -1.359375 C 12.640625 -2.75 12.625 -4.140625 12.625 -5.546875 C 12.625 -6.9375 12.640625 -8.34375 12.640625 -9.734375 C 12.640625 -10.609375 12.15625 -11.09375 11.28125 -11.09375 Z M 11.28125 -11.09375 "/></g></g></g><g fill="#f9afa6" fill-opacity="1"><g transform="translate(282.009958, 230.798392)"><g><path d="M 4.1875 -2.125 L 4.1875 -4.421875 C 4.859375 -4.40625 5.53125 -4.40625 6.171875 -4.390625 C 7.0625 -4.390625 7.53125 -4.765625 7.53125 -5.46875 C 7.53125 -6.15625 7.0625 -6.546875 6.171875 -6.546875 C 5.53125 -6.53125 4.859375 -6.53125 4.1875 -6.515625 L 4.1875 -8.953125 C 5.078125 -8.9375 5.96875 -8.9375 6.8125 -8.921875 C 7.703125 -8.921875 8.171875 -9.3125 8.171875 -10.015625 C 8.171875 -10.703125 7.703125 -11.09375 6.8125 -11.09375 L 2.5625 -11.09375 C 1.6875 -11.09375 1.203125 -10.609375 1.21875 -9.734375 C 1.21875 -8.34375 1.234375 -6.9375 1.234375 -5.546875 C 1.234375 -4.15625 1.21875 -2.765625 1.21875 -1.359375 C 1.203125 -0.484375 1.6875 0 2.5625 0 L 6.96875 0 C 7.859375 0 8.34375 -0.390625 8.34375 -1.09375 C 8.34375 -1.78125 7.859375 -2.15625 6.96875 -2.15625 C 6.078125 -2.140625 5.140625 -2.140625 4.1875 -2.125 Z M 4.1875 -2.125 "/></g></g></g><g clip-path="url(#8e2b5e338d)"><g clip-path="url(#1e223ebbc4)"><g clip-path="url(#f539f4c508)"><path fill="#517564" d="M 216.441406 213.433594 C 216.15625 213.507812 215.816406 213.367188 215.597656 213.117188 C 202.125 191.902344 209.699219 171.046875 209.785156 170.796875 C 209.925781 170.457031 210.335938 170.273438 210.75 170.394531 C 211.160156 170.519531 211.34375 170.929688 211.148438 171.359375 C 211.113281 171.519531 203.75 191.710938 216.917969 212.320312 C 217.152344 212.640625 217.050781 213.125 216.730469 213.359375 C 216.65625 213.378906 216.585938 213.394531 216.441406 213.433594 Z M 216.441406 213.433594 " fill-opacity="1" fill-rule="nonzero"/></g></g></g><g clip-path="url(#83131dd6c2)"><path fill="#517564" d="M 192.019531 213.105469 C 192.351562 213.105469 192.679688 212.855469 192.84375 212.527344 C 201.523438 185.75 187.472656 165.253906 187.308594 165.007812 C 187.0625 164.675781 186.566406 164.59375 186.152344 164.84375 C 185.738281 165.089844 185.65625 165.585938 185.988281 166 C 186.070312 166.164062 199.703125 186 191.191406 212.03125 C 191.027344 212.445312 191.277344 212.9375 191.6875 213.105469 C 191.769531 213.105469 191.855469 213.105469 192.019531 213.105469 Z M 192.019531 213.105469 " fill-opacity="1" fill-rule="nonzero"/></g><g clip-path="url(#30acc061e1)"><g clip-path="url(#7232c3e591)"><g clip-path="url(#4d784ba9cb)"><path fill="#fbdcd9" d="M 194.34375 149.761719 C 193.199219 150.078125 191.875 150.824219 190.851562 151.257812 C 189.8125 151.691406 189.042969 151.820312 188.3125 152.554688 C 187.582031 153.285156 186.863281 154.625 186.984375 156.007812 C 187.121094 157.382812 188.09375 158.800781 189.738281 159.625 C 191.382812 160.460938 193.714844 160.710938 195.363281 160.199219 C 197.007812 159.703125 197.976562 158.4375 198.648438 156.984375 C 199.316406 155.535156 199.675781 153.894531 199.433594 152.644531 C 199.199219 151.394531 198.347656 150.546875 197.433594 150.058594 C 196.507812 149.566406 195.503906 149.449219 194.34375 149.761719 Z M 194.34375 149.761719 " fill-opacity="1" fill-rule="evenodd"/></g></g></g><g clip-path="url(#b13e390ecb)"><g clip-path="url(#f6f8b992a6)"><g clip-path="url(#6fe004903e)"><path fill="#fbdcd9" d="M 180.648438 150.664062 C 179.207031 149.695312 177.625 149.1875 176.070312 149.566406 C 174.535156 149.941406 173.039062 151.175781 172.1875 152.578125 C 171.339844 153.972656 171.140625 155.519531 172.226562 157.148438 C 173.324219 158.78125 175.722656 160.5 177.851562 160.886719 C 179.988281 161.292969 181.878906 160.359375 182.957031 159.085938 C 184.039062 157.800781 184.316406 156.164062 183.828125 154.632812 C 183.332031 153.082031 182.070312 151.640625 180.648438 150.664062 Z M 180.648438 150.664062 " fill-opacity="1" fill-rule="evenodd"/></g></g></g><g clip-path="url(#1c48f8d894)"><g clip-path="url(#56c1f0efe5)"><g clip-path="url(#3f4c88fd26)"><path fill="#fbdcd9" d="M 195.929688 159.796875 C 194.488281 158.824219 192.90625 158.316406 191.351562 158.699219 C 189.816406 159.070312 188.324219 160.308594 187.46875 161.710938 C 186.621094 163.101562 186.425781 164.652344 187.511719 166.277344 C 188.609375 167.914062 191.007812 169.632812 193.136719 170.019531 C 195.273438 170.425781 197.164062 169.488281 198.238281 168.21875 C 199.324219 166.929688 199.601562 165.292969 199.113281 163.765625 C 198.617188 162.214844 197.355469 160.769531 195.929688 159.796875 Z M 195.929688 159.796875 " fill-opacity="1" fill-rule="evenodd"/></g></g></g><g clip-path="url(#8c0b10aee6)"><path fill="#fbdcd9" d="M 185.039062 158.964844 C 183.605469 158.648438 182.347656 158.894531 181.265625 159.46875 C 180.183594 160.027344 179.257812 160.9375 178.699219 162.925781 C 178.160156 164.917969 177.96875 168.023438 178.699219 170.101562 C 179.449219 172.195312 181.109375 173.277344 182.804688 173.644531 C 184.515625 174.011719 186.242188 173.664062 187.410156 172.964844 C 188.5625 172.265625 189.15625 171.21875 189.4375 169.175781 C 189.714844 167.132812 189.679688 164.097656 188.878906 162.140625 C 188.058594 160.167969 186.46875 159.296875 185.039062 158.964844 Z M 185.039062 158.964844 " fill-opacity="1" fill-rule="evenodd"/></g><g clip-path="url(#923ffbff8d)"><path fill="#fbdcd9" d="M 177.144531 157.769531 C 176.128906 158.390625 175.0625 159.46875 174.199219 160.171875 C 173.320312 160.875 172.617188 161.210938 172.117188 162.117188 C 171.621094 163.019531 171.296875 164.507812 171.796875 165.804688 C 172.308594 167.085938 173.632812 168.179688 175.441406 168.519531 C 177.25 168.871094 179.5625 168.464844 181.003906 167.519531 C 182.449219 166.585938 183.03125 165.101562 183.273438 163.519531 C 183.519531 161.941406 183.410156 160.265625 182.828125 159.132812 C 182.261719 157.996094 181.207031 157.417969 180.195312 157.199219 C 179.167969 156.984375 178.167969 157.144531 177.144531 157.769531 Z M 177.144531 157.769531 " fill-opacity="1" fill-rule="evenodd"/></g><g clip-path="url(#d977adfdb3)"><g clip-path="url(#45b43b387f)"><g clip-path="url(#973a895d06)"><path fill="#fbdcd9" d="M 185.488281 144.367188 C 185.902344 144.390625 186.308594 144.488281 186.707031 144.671875 C 187.105469 144.851562 187.488281 145.109375 187.855469 145.445312 C 188.222656 145.78125 188.566406 146.1875 188.886719 146.664062 C 189.210938 147.140625 189.503906 147.675781 189.769531 148.277344 C 190.03125 148.875 190.261719 149.527344 190.457031 150.226562 C 190.65625 150.925781 190.816406 151.660156 190.9375 152.433594 C 191.058594 153.207031 191.136719 154 191.179688 154.816406 C 191.222656 155.632812 191.222656 156.453125 191.183594 157.28125 C 191.140625 158.109375 191.0625 158.925781 190.941406 159.734375 C 190.820312 160.542969 190.664062 161.324219 190.46875 162.082031 C 190.273438 162.839844 190.042969 163.554688 189.78125 164.234375 C 189.515625 164.910156 189.226562 165.535156 188.902344 166.105469 C 188.582031 166.675781 188.238281 167.183594 187.871094 167.625 C 187.507812 168.070312 187.125 168.441406 186.726562 168.738281 C 186.328125 169.035156 185.921875 169.257812 185.507812 169.398438 C 185.097656 169.539062 184.683594 169.601562 184.269531 169.582031 C 183.855469 169.5625 183.449219 169.460938 183.050781 169.28125 C 182.652344 169.097656 182.269531 168.839844 181.902344 168.503906 C 181.535156 168.167969 181.191406 167.765625 180.871094 167.289062 C 180.546875 166.8125 180.253906 166.273438 179.988281 165.671875 C 179.726562 165.074219 179.496094 164.425781 179.296875 163.726562 C 179.101562 163.027344 178.941406 162.289062 178.820312 161.515625 C 178.699219 160.746094 178.617188 159.949219 178.578125 159.136719 C 178.535156 158.320312 178.535156 157.496094 178.574219 156.667969 C 178.617188 155.84375 178.695312 155.023438 178.816406 154.214844 C 178.9375 153.410156 179.09375 152.625 179.289062 151.867188 C 179.484375 151.113281 179.714844 150.394531 179.976562 149.71875 C 180.242188 149.039062 180.53125 148.417969 180.855469 147.84375 C 181.175781 147.273438 181.519531 146.765625 181.882812 146.324219 C 182.25 145.878906 182.632812 145.511719 183.03125 145.210938 C 183.429688 144.914062 183.835938 144.691406 184.25 144.550781 C 184.660156 144.410156 185.074219 144.347656 185.488281 144.367188 Z M 185.488281 144.367188 " fill-opacity="1" fill-rule="nonzero"/></g></g></g><g clip-path="url(#c2cfcafd60)"><g clip-path="url(#7f172af1d3)"><g clip-path="url(#61f47ecd2e)"><path fill="#fbdcd9" d="M 227.304688 175.445312 C 226.332031 174.761719 224.917969 174.210938 223.933594 173.695312 C 222.941406 173.164062 222.351562 172.65625 221.324219 172.554688 C 220.292969 172.453125 218.800781 172.742188 217.808594 173.714844 C 216.832031 174.695312 216.351562 176.34375 216.757812 178.136719 C 217.152344 179.9375 218.4375 181.898438 219.878906 182.851562 C 221.304688 183.8125 222.902344 183.757812 224.449219 183.355469 C 225.996094 182.953125 227.492188 182.191406 228.300781 181.207031 C 229.121094 180.238281 229.238281 179.039062 229.035156 178.023438 C 228.828125 176.996094 228.28125 176.144531 227.304688 175.445312 Z M 227.304688 175.445312 " fill-opacity="1" fill-rule="evenodd"/></g></g></g><g clip-path="url(#41a6b87013)"><g clip-path="url(#bc4c6f0602)"><g clip-path="url(#0c8da67544)"><path fill="#fbdcd9" d="M 221.554688 164.386719 C 221.648438 162.652344 221.273438 161.03125 220.152344 159.894531 C 219.042969 158.765625 217.21875 158.117188 215.574219 158.105469 C 213.945312 158.089844 212.515625 158.714844 211.671875 160.480469 C 210.832031 162.261719 210.585938 165.203125 211.34375 167.230469 C 212.09375 169.273438 213.863281 170.414062 215.507812 170.6875 C 217.167969 170.957031 218.714844 170.355469 219.78125 169.152344 C 220.855469 167.933594 221.449219 166.109375 221.554688 164.386719 Z M 221.554688 164.386719 " fill-opacity="1" fill-rule="evenodd"/></g></g></g><g clip-path="url(#1ef989c9e4)"><g clip-path="url(#f4dbf31945)"><g clip-path="url(#91172a171a)"><path fill="#fbdcd9" d="M 219.984375 182.09375 C 220.078125 180.359375 219.703125 178.742188 218.578125 177.601562 C 217.472656 176.472656 215.644531 175.824219 214 175.8125 C 212.371094 175.796875 210.941406 176.421875 210.101562 178.1875 C 209.261719 179.96875 209.011719 182.910156 209.773438 184.9375 C 210.519531 186.980469 212.292969 188.121094 213.9375 188.394531 C 215.597656 188.664062 217.144531 188.066406 218.207031 186.859375 C 219.28125 185.640625 219.875 183.816406 219.984375 182.09375 Z M 219.984375 182.09375 " fill-opacity="1" fill-rule="evenodd"/></g></g></g><g clip-path="url(#3f16afe84c)"><g clip-path="url(#b14099d72d)"><g clip-path="url(#89c8d3bfb2)"><path fill="#fbdcd9" d="M 213.953125 175.390625 C 213.652344 173.953125 212.910156 172.910156 211.941406 172.160156 C 210.988281 171.402344 209.78125 170.929688 207.738281 171.238281 C 205.699219 171.5625 202.789062 172.664062 201.195312 174.183594 C 199.59375 175.730469 199.285156 177.683594 199.648438 179.378906 C 200.015625 181.089844 201.042969 182.523438 202.160156 183.304688 C 203.269531 184.066406 204.46875 184.179688 206.445312 183.59375 C 208.421875 183.011719 211.179688 181.730469 212.632812 180.195312 C 214.09375 178.636719 214.238281 176.832031 213.953125 175.390625 Z M 213.953125 175.390625 " fill-opacity="1" fill-rule="evenodd"/></g></g></g><g clip-path="url(#44926e3094)"><g clip-path="url(#da1fd1e7fd)"><g clip-path="url(#141915acc6)"><path fill="#fbdcd9" d="M 212.203125 164.472656 C 211.148438 163.921875 209.675781 163.558594 208.628906 163.175781 C 207.574219 162.785156 206.925781 162.355469 205.890625 162.386719 C 204.859375 162.421875 203.417969 162.90625 202.558594 164 C 201.722656 165.097656 201.460938 166.796875 202.097656 168.523438 C 202.726562 170.257812 204.257812 172.03125 205.808594 172.789062 C 207.351562 173.550781 208.925781 173.289062 210.40625 172.6875 C 211.886719 172.085938 213.269531 171.132812 213.945312 170.054688 C 214.628906 168.984375 214.585938 167.78125 214.253906 166.800781 C 213.914062 165.808594 213.261719 165.035156 212.203125 164.472656 Z M 212.203125 164.472656 " fill-opacity="1" fill-rule="evenodd"/></g></g></g><g clip-path="url(#8653e778ef)"><g clip-path="url(#6ca356f7ce)"><g clip-path="url(#ba2bc043df)"><path fill="#fbdcd9" d="M 229.441406 167.636719 C 229.636719 168.003906 229.757812 168.402344 229.804688 168.835938 C 229.855469 169.273438 229.828125 169.734375 229.726562 170.21875 C 229.628906 170.707031 229.457031 171.210938 229.210938 171.730469 C 228.96875 172.25 228.65625 172.777344 228.277344 173.3125 C 227.898438 173.847656 227.460938 174.378906 226.960938 174.90625 C 226.460938 175.433594 225.910156 175.945312 225.308594 176.445312 C 224.707031 176.945312 224.066406 177.425781 223.386719 177.878906 C 222.707031 178.332031 222.003906 178.753906 221.273438 179.144531 C 220.542969 179.535156 219.796875 179.882812 219.042969 180.195312 C 218.289062 180.507812 217.535156 180.773438 216.785156 180.992188 C 216.035156 181.210938 215.300781 181.382812 214.585938 181.503906 C 213.867188 181.625 213.183594 181.695312 212.527344 181.710938 C 211.875 181.730469 211.261719 181.695312 210.691406 181.605469 C 210.125 181.519531 209.609375 181.382812 209.152344 181.191406 C 208.691406 181.003906 208.292969 180.769531 207.960938 180.484375 C 207.625 180.203125 207.363281 179.878906 207.167969 179.511719 C 206.972656 179.148438 206.851562 178.746094 206.800781 178.3125 C 206.753906 177.878906 206.777344 177.417969 206.878906 176.929688 C 206.976562 176.445312 207.148438 175.941406 207.394531 175.417969 C 207.636719 174.898438 207.949219 174.371094 208.328125 173.835938 C 208.707031 173.300781 209.148438 172.773438 209.648438 172.246094 C 210.148438 171.71875 210.695312 171.203125 211.296875 170.703125 C 211.898438 170.203125 212.539062 169.726562 213.21875 169.273438 C 213.898438 168.820312 214.601562 168.398438 215.335938 168.007812 C 216.066406 167.617188 216.808594 167.265625 217.5625 166.957031 C 218.320312 166.644531 219.070312 166.378906 219.820312 166.15625 C 220.570312 165.9375 221.304688 165.765625 222.023438 165.644531 C 222.738281 165.523438 223.421875 165.457031 224.078125 165.4375 C 224.734375 165.421875 225.34375 165.457031 225.914062 165.542969 C 226.480469 165.632812 226.996094 165.769531 227.457031 165.957031 C 227.914062 166.144531 228.3125 166.382812 228.648438 166.664062 C 228.980469 166.945312 229.246094 167.269531 229.441406 167.636719 Z M 229.441406 167.636719 " fill-opacity="1" fill-rule="nonzero"/></g></g></g><g clip-path="url(#16ba4e7b22)"><path fill="#f9afa6" d="M 184.089844 155.738281 C 183.8125 155.75 183.402344 155.839844 183.082031 155.972656 C 182.558594 156.183594 182.054688 156.589844 181.71875 157.066406 C 181.574219 157.277344 181.371094 157.609375 181.300781 157.765625 C 181.109375 158.171875 180.964844 158.742188 180.90625 159.300781 C 180.855469 159.804688 180.992188 160.472656 181.242188 160.945312 C 181.542969 161.515625 181.804688 161.753906 182.382812 161.980469 C 182.765625 162.132812 183.453125 162.289062 183.914062 162.328125 C 184.148438 162.347656 184.203125 162.347656 184.457031 162.328125 C 184.730469 162.304688 184.949219 162.265625 185.234375 162.179688 C 185.773438 162.015625 186.117188 161.824219 186.484375 161.476562 C 186.710938 161.261719 186.9375 160.945312 187.097656 160.625 C 187.214844 160.382812 187.371094 159.925781 187.429688 159.644531 C 187.472656 159.453125 187.476562 159.390625 187.476562 159.066406 C 187.476562 158.746094 187.472656 158.679688 187.4375 158.511719 C 187.351562 158.109375 187.199219 157.722656 187.015625 157.449219 C 186.855469 157.210938 186.582031 156.855469 186.457031 156.722656 C 186.164062 156.414062 185.648438 156.082031 185.265625 155.957031 C 185.058594 155.890625 184.382812 155.753906 184.199219 155.742188 C 184.164062 155.738281 184.128906 155.738281 184.089844 155.738281 Z M 184.089844 155.738281 " fill-opacity="1" fill-rule="nonzero"/></g><g clip-path="url(#f8884e2c1c)"><path fill="#f9afa6" d="M 215.339844 170.71875 C 215.0625 170.730469 214.652344 170.820312 214.332031 170.949219 C 213.808594 171.164062 213.304688 171.570312 212.972656 172.046875 C 212.824219 172.257812 212.625 172.589844 212.550781 172.746094 C 212.359375 173.148438 212.214844 173.722656 212.15625 174.28125 C 212.109375 174.785156 212.246094 175.449219 212.492188 175.921875 C 212.796875 176.496094 213.054688 176.734375 213.632812 176.960938 C 214.015625 177.113281 214.703125 177.269531 215.164062 177.308594 C 215.398438 177.328125 215.453125 177.328125 215.710938 177.308594 C 215.980469 177.285156 216.203125 177.246094 216.484375 177.160156 C 217.023438 176.996094 217.367188 176.804688 217.734375 176.457031 C 217.964844 176.242188 218.191406 175.925781 218.347656 175.605469 C 218.464844 175.363281 218.621094 174.90625 218.679688 174.625 C 218.722656 174.433594 218.726562 174.371094 218.726562 174.046875 C 218.730469 173.726562 218.722656 173.660156 218.6875 173.492188 C 218.601562 173.089844 218.449219 172.699219 218.265625 172.429688 C 218.105469 172.191406 217.832031 171.835938 217.710938 171.703125 C 217.414062 171.394531 216.898438 171.0625 216.519531 170.9375 C 216.3125 170.871094 215.632812 170.734375 215.449219 170.71875 C 215.417969 170.71875 215.378906 170.71875 215.339844 170.71875 Z M 215.339844 170.71875 " fill-opacity="1" fill-rule="nonzero"/></g></svg>