<svg xmlns="http://www.w3.org/2000/svg" xmlns:xlink="http://www.w3.org/1999/xlink" width="500" zoomAndPan="magnify" viewBox="0 0 375 374.999991" height="500" preserveAspectRatio="xMidYMid meet" version="1.0"><defs><g/><clipPath id="1ae7e75d6e"><path d="M 194 169 L 206 169 L 206 217 L 194 217 Z M 194 169 " clip-rule="nonzero"/></clipPath><clipPath id="2b7b03ec84"><path d="M 183.859375 172.851562 L 198.765625 169.003906 L 210.652344 215.074219 L 195.746094 218.917969 Z M 183.859375 172.851562 " clip-rule="nonzero"/></clipPath><clipPath id="6ca963791b"><path d="M 183.859375 172.851562 L 198.765625 169.003906 L 210.652344 215.074219 L 195.746094 218.917969 Z M 183.859375 172.851562 " clip-rule="nonzero"/></clipPath><clipPath id="57f03a8fc6"><path d="M 171.585938 163.09375 L 183 163.09375 L 183 216 L 171.585938 216 Z M 171.585938 163.09375 " clip-rule="nonzero"/></clipPath><clipPath id="6ebfdec514"><path d="M 172 147 L 187 147 L 187 159 L 172 159 Z M 172 147 " clip-rule="nonzero"/></clipPath><clipPath id="d2d52a5645"><path d="M 174.820312 144.910156 L 186.925781 148.390625 L 183.445312 160.492188 L 171.34375 157.015625 Z M 174.820312 144.910156 " clip-rule="nonzero"/></clipPath><clipPath id="2443fc81ae"><path d="M 174.820312 144.910156 L 186.925781 148.390625 L 183.445312 160.492188 L 171.34375 157.015625 Z M 174.820312 144.910156 " clip-rule="nonzero"/></clipPath><clipPath id="74c6142b4d"><path d="M 156 147 L 170 147 L 170 160 L 156 160 Z M 156 147 " clip-rule="nonzero"/></clipPath><clipPath id="c2c1b836e1"><path d="M 159.5 144.910156 L 171.9375 151.324219 L 166.167969 162.515625 L 153.730469 156.105469 Z M 159.5 144.910156 " clip-rule="nonzero"/></clipPath><clipPath id="bfd2e4638a"><path d="M 159.5 144.910156 L 171.9375 151.324219 L 166.167969 162.515625 L 153.730469 156.105469 Z M 159.5 144.910156 " clip-rule="nonzero"/></clipPath><clipPath id="1c63afd1ad"><path d="M 172 156 L 187 156 L 187 170 L 172 170 Z M 172 156 " clip-rule="nonzero"/></clipPath><clipPath id="ae4bd4aab7"><path d="M 175.980469 154.757812 L 188.417969 161.167969 L 182.648438 172.363281 L 170.210938 165.953125 Z M 175.980469 154.757812 " clip-rule="nonzero"/></clipPath><clipPath id="e93489891c"><path d="M 175.980469 154.757812 L 188.417969 161.167969 L 182.648438 172.363281 L 170.210938 165.953125 Z M 175.980469 154.757812 " clip-rule="nonzero"/></clipPath><clipPath id="0205360316"><path d="M 163 157.054688 L 175.582031 157.054688 L 175.582031 173.84375 L 163 173.84375 Z M 163 157.054688 " clip-rule="nonzero"/></clipPath><clipPath id="6d1690f631"><path d="M 156 155.253906 L 168.390625 155.253906 L 168.390625 167.847656 L 156 167.847656 Z M 156 155.253906 " clip-rule="nonzero"/></clipPath><clipPath id="476fbafe7d"><path d="M 163 141 L 178 141 L 178 169 L 163 169 Z M 163 141 " clip-rule="nonzero"/></clipPath><clipPath id="2e8ab40da8"><path d="M 162.996094 168.507812 L 164.28125 141.953125 L 178.257812 142.628906 L 176.972656 169.1875 Z M 162.996094 168.507812 " clip-rule="nonzero"/></clipPath><clipPath id="83491e7e3f"><path d="M 162.996094 168.507812 L 164.28125 141.953125 L 178.257812 142.628906 L 176.972656 169.1875 Z M 162.996094 168.507812 " clip-rule="nonzero"/></clipPath><clipPath id="d56b8aeaa3"><path d="M 204 172 L 219 172 L 219 184 L 204 184 Z M 204 172 " clip-rule="nonzero"/></clipPath><clipPath id="c81bb4ab72"><path d="M 214.46875 169.03125 L 219.453125 180.597656 L 207.886719 185.582031 L 202.902344 174.015625 Z M 214.46875 169.03125 " clip-rule="nonzero"/></clipPath><clipPath id="108f95df37"><path d="M 214.46875 169.03125 L 219.453125 180.597656 L 207.886719 185.582031 L 202.902344 174.015625 Z M 214.46875 169.03125 " clip-rule="nonzero"/></clipPath><clipPath id="ab9349eaa9"><path d="M 198 156 L 210 156 L 210 171 L 198 171 Z M 198 156 " clip-rule="nonzero"/></clipPath><clipPath id="ff8e92d8b0"><path d="M 209.746094 155.949219 L 210.617188 169.914062 L 198.046875 170.699219 L 197.175781 156.734375 Z M 209.746094 155.949219 " clip-rule="nonzero"/></clipPath><clipPath id="9a446058d9"><path d="M 209.746094 155.949219 L 210.617188 169.914062 L 198.046875 170.699219 L 197.175781 156.734375 Z M 209.746094 155.949219 " clip-rule="nonzero"/></clipPath><clipPath id="d31e0078d9"><path d="M 196 175 L 209 175 L 209 190 L 196 190 Z M 196 175 " clip-rule="nonzero"/></clipPath><clipPath id="06cdd3eeb5"><path d="M 208.046875 175.042969 L 208.921875 189.007812 L 196.351562 189.792969 L 195.480469 175.828125 Z M 208.046875 175.042969 " clip-rule="nonzero"/></clipPath><clipPath id="bf1f61a44f"><path d="M 208.046875 175.042969 L 208.921875 189.007812 L 196.351562 189.792969 L 195.480469 175.828125 Z M 208.046875 175.042969 " clip-rule="nonzero"/></clipPath><clipPath id="b7542dbfd5"><path d="M 186 170 L 202 170 L 202 185 L 186 185 Z M 186 170 " clip-rule="nonzero"/></clipPath><clipPath id="9c1437ca27"><path d="M 198.96875 168.019531 L 204.140625 179.5 L 188.828125 186.394531 L 183.65625 174.914062 Z M 198.96875 168.019531 " clip-rule="nonzero"/></clipPath><clipPath id="57e7e3a0ac"><path d="M 198.96875 168.019531 L 204.140625 179.5 L 188.828125 186.394531 L 183.65625 174.914062 Z M 198.96875 168.019531 " clip-rule="nonzero"/></clipPath><clipPath id="3922da9e74"><path d="M 188 161 L 203 161 L 203 173 L 188 173 Z M 188 161 " clip-rule="nonzero"/></clipPath><clipPath id="bb34dbcafd"><path d="M 197.394531 157.476562 L 203.851562 168.289062 L 193.039062 174.746094 L 186.582031 163.933594 Z M 197.394531 157.476562 " clip-rule="nonzero"/></clipPath><clipPath id="9797a2d3d5"><path d="M 197.394531 157.476562 L 203.851562 168.289062 L 193.039062 174.746094 L 186.582031 163.933594 Z M 197.394531 157.476562 " clip-rule="nonzero"/></clipPath><clipPath id="73bfb9737c"><path d="M 194 164 L 219 164 L 219 182 L 194 182 Z M 194 164 " clip-rule="nonzero"/></clipPath><clipPath id="c2b9592e5d"><path d="M 191.273438 173.546875 L 214.734375 161.035156 L 221.320312 173.382812 L 197.859375 185.894531 Z M 191.273438 173.546875 " clip-rule="nonzero"/></clipPath><clipPath id="4c9e116e26"><path d="M 191.273438 173.546875 L 214.734375 161.035156 L 221.320312 173.382812 L 197.859375 185.894531 Z M 191.273438 173.546875 " clip-rule="nonzero"/></clipPath><clipPath id="e3e5633031"><path d="M 166.105469 153.914062 L 173.101562 153.914062 L 173.101562 160.910156 L 166.105469 160.910156 Z M 166.105469 153.914062 " clip-rule="nonzero"/></clipPath><clipPath id="6927399fbe"><path d="M 199.800781 170.066406 L 206.796875 170.066406 L 206.796875 177.0625 L 199.800781 177.0625 Z M 199.800781 170.066406 " clip-rule="nonzero"/></clipPath></defs><path stroke-linecap="butt" transform="matrix(-0.0138589, -1.399221, 1.399221, -0.0138589, 127.594155, 265.158263)" fill="none" stroke-linejoin="miter" d="M -0.00099976 2.501092 L 70.093807 2.500218 " stroke="#fbdcd9" stroke-width="5" stroke-opacity="1" stroke-miterlimit="4"/><path stroke-linecap="butt" transform="matrix(-1.399276, -0.00614973, 0.00614973, -1.399276, 246.048298, 267.077502)" fill="none" stroke-linejoin="miter" d="M 0.000841479 2.500844 L 84.419478 2.501115 " stroke="#fbdcd9" stroke-width="5" stroke-opacity="1" stroke-miterlimit="4"/><path stroke-linecap="butt" transform="matrix(0.989447, -0.989447, 0.989447, 0.989447, 126.690553, 166.584481)" fill="none" stroke-linejoin="miter" d="M -0.000304801 2.500195 L 59.293372 2.500195 " stroke="#fbdcd9" stroke-width="5" stroke-opacity="1" stroke-miterlimit="4"/><path stroke-linecap="butt" transform="matrix(0.989447, 0.989447, -0.989447, 0.989447, 186.359611, 107.94342)" fill="none" stroke-linejoin="miter" d="M 0.000837198 2.500103 L 59.278722 2.500103 " stroke="#fbdcd9" stroke-width="5" stroke-opacity="1" stroke-miterlimit="4"/><g clip-path="url(#1ae7e75d6e)"><g clip-path="url(#2b7b03ec84)"><g clip-path="url(#6ca963791b)"><path fill="#517564" d="M 204.484375 216.132812 C 204.175781 216.214844 203.804688 216.0625 203.574219 215.792969 C 189.035156 192.910156 197.207031 170.414062 197.300781 170.144531 C 197.453125 169.777344 197.894531 169.578125 198.339844 169.710938 C 198.785156 169.84375 198.980469 170.285156 198.773438 170.75 C 198.734375 170.925781 190.792969 192.703125 204.996094 214.933594 C 205.25 215.277344 205.136719 215.800781 204.789062 216.054688 C 204.714844 216.074219 204.636719 216.09375 204.484375 216.132812 Z M 204.484375 216.132812 " fill-opacity="1" fill-rule="nonzero"/></g></g></g><g clip-path="url(#57f03a8fc6)"><path fill="#517564" d="M 178.136719 215.75 C 178.492188 215.75 178.851562 215.484375 179.027344 215.128906 C 188.378906 186.277344 173.238281 164.191406 173.0625 163.925781 C 172.792969 163.566406 172.261719 163.480469 171.816406 163.746094 C 171.371094 164.011719 171.28125 164.546875 171.636719 164.992188 C 171.726562 165.171875 186.417969 186.542969 177.246094 214.59375 C 177.070312 215.039062 177.335938 215.574219 177.78125 215.75 C 177.871094 215.75 177.960938 215.75 178.136719 215.75 Z M 178.136719 215.75 " fill-opacity="1" fill-rule="nonzero"/></g><g clip-path="url(#6ebfdec514)"><g clip-path="url(#d2d52a5645)"><g clip-path="url(#2443fc81ae)"><path fill="#fbdcd9" d="M 180.652344 147.464844 C 179.417969 147.808594 177.988281 148.609375 176.882812 149.078125 C 175.765625 149.546875 174.9375 149.6875 174.152344 150.476562 C 173.363281 151.261719 172.585938 152.707031 172.714844 154.199219 C 172.867188 155.679688 173.910156 157.207031 175.6875 158.097656 C 177.457031 159 179.96875 159.265625 181.75 158.71875 C 183.523438 158.183594 184.566406 156.816406 185.289062 155.25 C 186.011719 153.6875 186.398438 151.917969 186.136719 150.570312 C 185.886719 149.226562 184.96875 148.3125 183.980469 147.785156 C 182.984375 147.257812 181.898438 147.125 180.652344 147.464844 Z M 180.652344 147.464844 " fill-opacity="1" fill-rule="evenodd"/></g></g></g><g clip-path="url(#74c6142b4d)"><g clip-path="url(#c2c1b836e1)"><g clip-path="url(#bfd2e4638a)"><path fill="#fbdcd9" d="M 165.875 148.441406 C 164.324219 147.398438 162.617188 146.851562 160.941406 147.257812 C 159.289062 147.660156 157.679688 148.992188 156.757812 150.507812 C 155.847656 152.003906 155.632812 153.671875 156.804688 155.425781 C 157.988281 157.1875 160.570312 159.039062 162.867188 159.457031 C 165.167969 159.894531 167.203125 158.886719 168.363281 157.515625 C 169.53125 156.128906 169.828125 154.367188 169.300781 152.71875 C 168.769531 151.046875 167.410156 149.492188 165.875 148.441406 Z M 165.875 148.441406 " fill-opacity="1" fill-rule="evenodd"/></g></g></g><g clip-path="url(#1c63afd1ad)"><g clip-path="url(#ae4bd4aab7)"><g clip-path="url(#e93489891c)"><path fill="#fbdcd9" d="M 182.355469 158.289062 C 180.800781 157.242188 179.097656 156.695312 177.421875 157.105469 C 175.769531 157.507812 174.160156 158.839844 173.238281 160.351562 C 172.328125 161.851562 172.113281 163.519531 173.28125 165.273438 C 174.46875 167.03125 177.050781 168.886719 179.34375 169.304688 C 181.648438 169.738281 183.683594 168.734375 184.84375 167.359375 C 186.011719 165.976562 186.308594 164.210938 185.78125 162.5625 C 185.246094 160.894531 183.886719 159.339844 182.355469 158.289062 Z M 182.355469 158.289062 " fill-opacity="1" fill-rule="evenodd"/></g></g></g><g clip-path="url(#0205360316)"><path fill="#fbdcd9" d="M 170.605469 157.402344 C 169.0625 157.0625 167.710938 157.328125 166.542969 157.945312 C 165.375 158.550781 164.378906 159.527344 163.777344 161.671875 C 163.195312 163.816406 162.988281 167.164062 163.777344 169.402344 C 164.585938 171.660156 166.375 172.824219 168.199219 173.222656 C 170.042969 173.617188 171.902344 173.238281 173.164062 172.488281 C 174.40625 171.734375 175.046875 170.605469 175.347656 168.40625 C 175.648438 166.203125 175.609375 162.933594 174.746094 160.824219 C 173.859375 158.699219 172.148438 157.757812 170.605469 157.402344 Z M 170.605469 157.402344 " fill-opacity="1" fill-rule="evenodd"/></g><g clip-path="url(#6d1690f631)"><path fill="#fbdcd9" d="M 162.105469 156.097656 C 161.011719 156.765625 159.863281 157.933594 158.929688 158.6875 C 157.984375 159.445312 157.226562 159.808594 156.6875 160.785156 C 156.148438 161.761719 155.800781 163.363281 156.339844 164.761719 C 156.890625 166.144531 158.320312 167.324219 160.269531 167.6875 C 162.222656 168.066406 164.710938 167.628906 166.269531 166.609375 C 167.828125 165.605469 168.453125 164.003906 168.714844 162.300781 C 168.976562 160.597656 168.859375 158.789062 168.234375 157.566406 C 167.621094 156.34375 166.488281 155.71875 165.394531 155.484375 C 164.289062 155.253906 163.210938 155.425781 162.105469 156.097656 Z M 162.105469 156.097656 " fill-opacity="1" fill-rule="evenodd"/></g><g clip-path="url(#476fbafe7d)"><g clip-path="url(#2e8ab40da8)"><g clip-path="url(#83491e7e3f)"><path fill="#fbdcd9" d="M 171.101562 141.660156 C 171.546875 141.683594 171.984375 141.789062 172.414062 141.984375 C 172.84375 142.179688 173.257812 142.457031 173.652344 142.820312 C 174.046875 143.179688 174.417969 143.617188 174.765625 144.132812 C 175.113281 144.644531 175.425781 145.226562 175.710938 145.871094 C 175.996094 146.515625 176.246094 147.21875 176.457031 147.96875 C 176.667969 148.722656 176.839844 149.515625 176.972656 150.347656 C 177.101562 151.183594 177.191406 152.039062 177.234375 152.917969 C 177.277344 153.796875 177.28125 154.679688 177.238281 155.574219 C 177.191406 156.464844 177.105469 157.347656 176.976562 158.214844 C 176.847656 159.085938 176.679688 159.929688 176.46875 160.746094 C 176.257812 161.5625 176.011719 162.335938 175.726562 163.0625 C 175.441406 163.792969 175.128906 164.464844 174.78125 165.082031 C 174.4375 165.695312 174.066406 166.242188 173.671875 166.71875 C 173.277344 167.199219 172.863281 167.597656 172.4375 167.917969 C 172.007812 168.242188 171.570312 168.476562 171.125 168.628906 C 170.679688 168.78125 170.234375 168.847656 169.785156 168.828125 C 169.339844 168.804688 168.902344 168.695312 168.472656 168.5 C 168.046875 168.308594 167.632812 168.027344 167.238281 167.667969 C 166.84375 167.304688 166.472656 166.867188 166.125 166.355469 C 165.777344 165.839844 165.460938 165.261719 165.175781 164.617188 C 164.890625 163.96875 164.644531 163.269531 164.433594 162.515625 C 164.21875 161.761719 164.050781 160.96875 163.917969 160.136719 C 163.789062 159.304688 163.699219 158.449219 163.65625 157.570312 C 163.609375 156.691406 163.609375 155.804688 163.652344 154.914062 C 163.695312 154.023438 163.78125 153.140625 163.910156 152.269531 C 164.042969 151.402344 164.210938 150.558594 164.421875 149.742188 C 164.632812 148.925781 164.878906 148.152344 165.164062 147.421875 C 165.445312 146.695312 165.761719 146.023438 166.109375 145.40625 C 166.453125 144.789062 166.824219 144.246094 167.21875 143.765625 C 167.613281 143.289062 168.023438 142.890625 168.453125 142.566406 C 168.882812 142.246094 169.320312 142.011719 169.765625 141.855469 C 170.210938 141.703125 170.65625 141.636719 171.101562 141.660156 Z M 171.101562 141.660156 " fill-opacity="1" fill-rule="nonzero"/></g></g></g><g clip-path="url(#d56b8aeaa3)"><g clip-path="url(#c81bb4ab72)"><g clip-path="url(#108f95df37)"><path fill="#fbdcd9" d="M 216.191406 175.160156 C 215.140625 174.421875 213.617188 173.824219 212.554688 173.269531 C 211.484375 172.699219 210.851562 172.148438 209.742188 172.039062 C 208.632812 171.929688 207.023438 172.242188 205.953125 173.292969 C 204.902344 174.347656 204.382812 176.125 204.820312 178.058594 C 205.246094 180 206.632812 182.113281 208.183594 183.140625 C 209.722656 184.175781 211.441406 184.117188 213.109375 183.683594 C 214.777344 183.25 216.390625 182.429688 217.265625 181.371094 C 218.144531 180.324219 218.273438 179.035156 218.054688 177.9375 C 217.828125 176.828125 217.242188 175.910156 216.191406 175.160156 Z M 216.191406 175.160156 " fill-opacity="1" fill-rule="evenodd"/></g></g></g><g clip-path="url(#ab9349eaa9)"><g clip-path="url(#ff8e92d8b0)"><g clip-path="url(#9a446058d9)"><path fill="#fbdcd9" d="M 209.984375 163.234375 C 210.082031 161.367188 209.679688 159.621094 208.46875 158.394531 C 207.277344 157.179688 205.308594 156.480469 203.535156 156.464844 C 201.78125 156.449219 200.242188 157.121094 199.335938 159.027344 C 198.429688 160.945312 198.164062 164.113281 198.980469 166.296875 C 199.785156 168.496094 201.695312 169.730469 203.46875 170.019531 C 205.253906 170.3125 206.921875 169.664062 208.066406 168.367188 C 209.226562 167.054688 209.867188 165.089844 209.984375 163.234375 Z M 209.984375 163.234375 " fill-opacity="1" fill-rule="evenodd"/></g></g></g><g clip-path="url(#d31e0078d9)"><g clip-path="url(#06cdd3eeb5)"><g clip-path="url(#bf1f61a44f)"><path fill="#fbdcd9" d="M 208.285156 182.328125 C 208.386719 180.460938 207.984375 178.714844 206.773438 177.484375 C 205.578125 176.273438 203.609375 175.574219 201.839844 175.558594 C 200.085938 175.542969 198.542969 176.214844 197.636719 178.117188 C 196.734375 180.039062 196.464844 183.207031 197.285156 185.390625 C 198.089844 187.589844 200 188.820312 201.773438 189.113281 C 203.558594 189.40625 205.226562 188.757812 206.371094 187.460938 C 207.53125 186.148438 208.167969 184.183594 208.285156 182.328125 Z M 208.285156 182.328125 " fill-opacity="1" fill-rule="evenodd"/></g></g></g><g clip-path="url(#b7542dbfd5)"><g clip-path="url(#9c1437ca27)"><g clip-path="url(#57e7e3a0ac)"><path fill="#fbdcd9" d="M 201.777344 175.109375 C 201.453125 173.5625 200.65625 172.4375 199.613281 171.628906 C 198.585938 170.8125 197.285156 170.304688 195.082031 170.636719 C 192.886719 170.984375 189.75 172.171875 188.03125 173.808594 C 186.304688 175.472656 185.976562 177.582031 186.363281 179.40625 C 186.761719 181.25 187.871094 182.792969 189.074219 183.636719 C 190.269531 184.457031 191.558594 184.578125 193.691406 183.949219 C 195.820312 183.320312 198.789062 181.941406 200.355469 180.285156 C 201.929688 178.609375 202.085938 176.660156 201.777344 175.109375 Z M 201.777344 175.109375 " fill-opacity="1" fill-rule="evenodd"/></g></g></g><g clip-path="url(#3922da9e74)"><g clip-path="url(#bb34dbcafd)"><g clip-path="url(#9797a2d3d5)"><path fill="#fbdcd9" d="M 199.90625 163.328125 C 198.769531 162.730469 197.179688 162.34375 196.050781 161.929688 C 194.917969 161.503906 194.214844 161.042969 193.101562 161.078125 C 191.988281 161.117188 190.433594 161.636719 189.511719 162.816406 C 188.605469 164 188.328125 165.832031 189.015625 167.691406 C 189.6875 169.5625 191.339844 171.476562 193.015625 172.289062 C 194.675781 173.113281 196.371094 172.828125 197.96875 172.179688 C 199.566406 171.53125 201.054688 170.507812 201.785156 169.34375 C 202.519531 168.191406 202.476562 166.894531 202.117188 165.839844 C 201.75 164.769531 201.046875 163.933594 199.90625 163.328125 Z M 199.90625 163.328125 " fill-opacity="1" fill-rule="evenodd"/></g></g></g><g clip-path="url(#73bfb9737c)"><g clip-path="url(#c2b9592e5d)"><g clip-path="url(#4c9e116e26)"><path fill="#fbdcd9" d="M 218.484375 166.742188 C 218.695312 167.136719 218.824219 167.570312 218.878906 168.035156 C 218.929688 168.503906 218.902344 169 218.792969 169.527344 C 218.6875 170.050781 218.503906 170.59375 218.238281 171.15625 C 217.976562 171.714844 217.640625 172.285156 217.230469 172.859375 C 216.824219 173.4375 216.347656 174.007812 215.8125 174.574219 C 215.273438 175.144531 214.679688 175.699219 214.03125 176.238281 C 213.382812 176.777344 212.695312 177.289062 211.964844 177.777344 C 211.230469 178.265625 210.472656 178.722656 209.683594 179.140625 C 208.894531 179.5625 208.09375 179.941406 207.28125 180.273438 C 206.46875 180.609375 205.65625 180.898438 204.847656 181.132812 C 204.039062 181.371094 203.25 181.554688 202.476562 181.6875 C 201.707031 181.816406 200.964844 181.890625 200.261719 181.910156 C 199.554688 181.929688 198.894531 181.890625 198.285156 181.796875 C 197.671875 181.703125 197.117188 181.554688 196.621094 181.351562 C 196.125 181.148438 195.699219 180.894531 195.339844 180.589844 C 194.980469 180.285156 194.695312 179.933594 194.484375 179.539062 C 194.273438 179.148438 194.144531 178.714844 194.089844 178.246094 C 194.039062 177.777344 194.066406 177.28125 194.171875 176.757812 C 194.28125 176.234375 194.464844 175.691406 194.730469 175.128906 C 194.992188 174.566406 195.328125 174 195.738281 173.425781 C 196.144531 172.847656 196.617188 172.277344 197.15625 171.707031 C 197.695312 171.140625 198.289062 170.585938 198.9375 170.046875 C 199.582031 169.507812 200.273438 168.996094 201.003906 168.503906 C 201.738281 168.015625 202.496094 167.5625 203.285156 167.140625 C 204.074219 166.722656 204.875 166.34375 205.6875 166.007812 C 206.5 165.675781 207.3125 165.386719 208.121094 165.148438 C 208.929688 164.914062 209.71875 164.730469 210.492188 164.597656 C 211.261719 164.46875 212 164.394531 212.707031 164.375 C 213.414062 164.355469 214.070312 164.394531 214.683594 164.488281 C 215.296875 164.582031 215.851562 164.730469 216.347656 164.933594 C 216.839844 165.136719 217.269531 165.390625 217.628906 165.695312 C 217.988281 166 218.273438 166.347656 218.484375 166.742188 Z M 218.484375 166.742188 " fill-opacity="1" fill-rule="nonzero"/></g></g></g><g clip-path="url(#e3e5633031)"><path fill="#f9afa6" d="M 169.585938 153.921875 C 169.285156 153.933594 168.847656 154.03125 168.503906 154.171875 C 167.9375 154.398438 167.394531 154.835938 167.035156 155.351562 C 166.875 155.578125 166.660156 155.9375 166.582031 156.105469 C 166.378906 156.539062 166.222656 157.15625 166.160156 157.757812 C 166.105469 158.296875 166.253906 159.015625 166.523438 159.523438 C 166.847656 160.140625 167.128906 160.394531 167.746094 160.640625 C 168.160156 160.804688 168.898438 160.972656 169.398438 161.015625 C 169.648438 161.035156 169.710938 161.035156 169.984375 161.015625 C 170.277344 160.992188 170.511719 160.945312 170.816406 160.855469 C 171.398438 160.679688 171.769531 160.472656 172.164062 160.097656 C 172.410156 159.867188 172.652344 159.527344 172.824219 159.183594 C 172.953125 158.921875 173.117188 158.429688 173.183594 158.128906 C 173.226562 157.917969 173.230469 157.851562 173.234375 157.503906 C 173.234375 157.160156 173.230469 157.085938 173.191406 156.90625 C 173.097656 156.472656 172.933594 156.054688 172.734375 155.761719 C 172.566406 155.507812 172.269531 155.121094 172.136719 154.980469 C 171.820312 154.648438 171.265625 154.292969 170.855469 154.15625 C 170.632812 154.085938 169.902344 153.9375 169.703125 153.921875 C 169.667969 153.921875 169.628906 153.921875 169.585938 153.921875 Z M 169.585938 153.921875 " fill-opacity="1" fill-rule="nonzero"/></g><g clip-path="url(#6927399fbe)"><path fill="#f9afa6" d="M 203.28125 170.074219 C 202.980469 170.082031 202.542969 170.183594 202.199219 170.324219 C 201.632812 170.550781 201.09375 170.988281 200.730469 171.503906 C 200.570312 171.730469 200.355469 172.089844 200.277344 172.257812 C 200.074219 172.691406 199.917969 173.308594 199.855469 173.910156 C 199.800781 174.449219 199.949219 175.167969 200.21875 175.675781 C 200.542969 176.292969 200.824219 176.546875 201.445312 176.792969 C 201.855469 176.957031 202.59375 177.125 203.09375 177.164062 C 203.34375 177.1875 203.40625 177.1875 203.679688 177.164062 C 203.972656 177.144531 204.210938 177.097656 204.511719 177.007812 C 205.09375 176.832031 205.464844 176.625 205.859375 176.25 C 206.105469 176.019531 206.347656 175.679688 206.519531 175.335938 C 206.648438 175.074219 206.8125 174.582031 206.878906 174.277344 C 206.921875 174.070312 206.929688 174.003906 206.929688 173.65625 C 206.929688 173.3125 206.925781 173.238281 206.886719 173.058594 C 206.792969 172.625 206.628906 172.207031 206.429688 171.914062 C 206.261719 171.660156 205.964844 171.273438 205.832031 171.132812 C 205.515625 170.800781 204.960938 170.445312 204.550781 170.308594 C 204.328125 170.238281 203.597656 170.089844 203.398438 170.074219 C 203.363281 170.074219 203.324219 170.074219 203.28125 170.074219 Z M 203.28125 170.074219 " fill-opacity="1" fill-rule="nonzero"/></g><path stroke-linecap="butt" transform="matrix(-0.0138589, -1.399221, 1.399221, -0.0138589, 239.253123, 265.191251)" fill="none" stroke-linejoin="miter" d="M 0.000261473 2.499162 L 70.09504 2.50108 " stroke="#fbdcd9" stroke-width="5" stroke-opacity="1" stroke-miterlimit="4"/><g fill="#f9afa6" fill-opacity="1"><g transform="translate(138.957519, 250.463577)"><g><path d="M 7.125 0 L 7.921875 0 C 10.375 0 11.703125 -1.328125 11.703125 -3.78125 L 11.703125 -27.0625 C 11.703125 -29.515625 10.375 -30.84375 7.921875 -30.84375 L 7.125 -30.84375 C 4.671875 -30.84375 3.34375 -29.515625 3.34375 -27.0625 L 3.34375 -3.78125 C 3.34375 -1.328125 4.671875 0 7.125 0 Z M 7.125 0 "/></g></g></g><g fill="#f9afa6" fill-opacity="1"><g transform="translate(156.673121, 250.463577)"><g><path d="M 6.640625 0 L 7.484375 0 C 9.921875 0 11.21875 -1.421875 11.265625 -4.046875 C 11.390625 -10.0625 12.234375 -11.96875 14.203125 -11.96875 C 16.296875 -11.96875 17.625 -9.875 18.203125 -3.921875 C 18.46875 -1.328125 19.71875 0 22.125 0 L 23.765625 0 C 26.3125 0 27.59375 -1.46875 27.375 -3.96875 L 27.28125 -5.25 C 26.265625 -11.4375 24.703125 -15.3125 21.671875 -16.921875 L 21.671875 -17.09375 C 24.703125 -18.78125 26.21875 -21.375 27.28125 -26.890625 C 27.59375 -29.375 26.265625 -30.8125 23.734375 -30.8125 L 22.5625 -30.8125 C 20.125 -30.8125 18.875 -29.375 18.828125 -26.703125 C 18.703125 -20.65625 17.671875 -18.96875 15.84375 -18.96875 C 13.890625 -18.96875 13.3125 -20.75 12.46875 -26.96875 C 12.15625 -29.515625 10.8125 -30.8125 8.453125 -30.8125 L 6.671875 -30.8125 C 4.140625 -30.8125 2.796875 -29.375 3.109375 -26.890625 C 3.828125 -21.328125 5.609375 -18.875 8.328125 -17.09375 L 8.328125 -16.921875 C 5.46875 -15.359375 3.6875 -11.578125 3.109375 -5.25 L 3.03125 -3.96875 C 2.796875 -1.46875 4.09375 0 6.640625 0 Z M 6.640625 0 "/></g></g></g><g fill="#f9afa6" fill-opacity="1"><g transform="translate(189.74499, 250.463577)"><g><path d="M 7.125 0 L 7.921875 0 C 10.375 0 11.703125 -1.328125 11.703125 -3.78125 L 11.703125 -27.0625 C 11.703125 -29.515625 10.375 -30.84375 7.921875 -30.84375 L 7.125 -30.84375 C 4.671875 -30.84375 3.34375 -29.515625 3.34375 -27.0625 L 3.34375 -3.78125 C 3.34375 -1.328125 4.671875 0 7.125 0 Z M 7.125 0 "/></g></g></g><g fill="#f9afa6" fill-opacity="1"><g transform="translate(207.460592, 250.463577)"><g><path d="M 14.203125 -31.296875 C 7.609375 -31.296875 3.734375 -26.21875 2.71875 -10.46875 C 2.578125 -8.40625 2.53125 -6.234375 2.5 -3.828125 C 2.453125 -1.328125 3.78125 0 6.1875 0 C 8.59375 0 9.921875 -1.328125 9.921875 -3.78125 C 9.921875 -4.890625 9.96875 -5.921875 9.96875 -6.90625 L 17.84375 -6.90625 C 17.890625 -5.78125 17.890625 -4.671875 17.890625 -3.46875 C 17.890625 -1.203125 19.234375 0 21.671875 0 L 22.34375 0 C 24.796875 0 26.125 -1.421875 26.09375 -4 C 25.78125 -24.84375 21.953125 -31.296875 14.203125 -31.296875 Z M 10.0625 -12.203125 C 10.375 -22.171875 11.3125 -25.015625 13.578125 -25.015625 C 15.796875 -25.015625 17.140625 -22.171875 17.671875 -12.203125 Z M 10.0625 -12.203125 "/></g></g></g></svg>