<svg xmlns="http://www.w3.org/2000/svg" xmlns:xlink="http://www.w3.org/1999/xlink" width="300" zoomAndPan="magnify" viewBox="77 140 220 100" height="150" preserveAspectRatio="xMidYMid meet" version="1.0"><defs><g/></defs><g fill="#f9afa6" fill-opacity="1"><g transform="translate(113.834497, 190.828897)"><g><path d="M 10.8125 0 L 12.015625 0 C 15.734375 0 17.765625 -2.03125 17.765625 -5.734375 L 17.765625 -41.0625 C 17.765625 -44.765625 15.734375 -46.796875 12.015625 -46.796875 L 10.8125 -46.796875 C 7.09375 -46.796875 5.0625 -44.765625 5.0625 -41.0625 L 5.0625 -5.734375 C 5.0625 -2.03125 7.09375 0 10.8125 0 Z M 10.8125 0 "/></g></g></g><g fill="#f9afa6" fill-opacity="1"><g transform="translate(140.71369, 190.828897)"><g><path d="M 10.0625 0 L 11.34375 0 C 15.0625 0 17.015625 -2.15625 17.078125 -6.140625 C 17.28125 -15.265625 18.578125 -18.171875 21.546875 -18.171875 C 24.71875 -18.171875 26.75 -14.984375 27.625 -5.9375 C 28.03125 -2.03125 29.921875 0 33.5625 0 L 36.0625 0 C 39.90625 0 41.875 -2.234375 41.53125 -6.015625 L 41.390625 -7.96875 C 39.84375 -17.359375 37.484375 -23.234375 32.890625 -25.65625 L 32.890625 -25.9375 C 37.484375 -28.5 39.78125 -32.421875 41.390625 -40.78125 C 41.875 -44.578125 39.84375 -46.734375 36 -46.734375 L 34.234375 -46.734375 C 30.53125 -46.734375 28.640625 -44.578125 28.5625 -40.515625 C 28.359375 -31.328125 26.8125 -28.765625 24.046875 -28.765625 C 21.0625 -28.765625 20.1875 -31.46875 18.90625 -40.921875 C 18.4375 -44.765625 16.40625 -46.734375 12.828125 -46.734375 L 10.125 -46.734375 C 6.28125 -46.734375 4.25 -44.578125 4.734375 -40.78125 C 5.8125 -32.34375 8.515625 -28.640625 12.625 -25.9375 L 12.625 -25.65625 C 8.3125 -23.296875 5.609375 -17.5625 4.734375 -7.96875 L 4.59375 -6.015625 C 4.25 -2.234375 6.21875 0 10.0625 0 Z M 10.0625 0 "/></g></g></g><g fill="#f9afa6" fill-opacity="1"><g transform="translate(190.892345, 190.828897)"><g><path d="M 10.8125 0 L 12.015625 0 C 15.734375 0 17.765625 -2.03125 17.765625 -5.734375 L 17.765625 -41.0625 C 17.765625 -44.765625 15.734375 -46.796875 12.015625 -46.796875 L 10.8125 -46.796875 C 7.09375 -46.796875 5.0625 -44.765625 5.0625 -41.0625 L 5.0625 -5.734375 C 5.0625 -2.03125 7.09375 0 10.8125 0 Z M 10.8125 0 "/></g></g></g><g fill="#f9afa6" fill-opacity="1"><g transform="translate(217.771538, 190.828897)"><g><path d="M 21.546875 -47.46875 C 11.546875 -47.46875 5.671875 -39.78125 4.125 -15.875 C 3.921875 -12.765625 3.84375 -9.453125 3.78125 -5.8125 C 3.71875 -2.03125 5.734375 0 9.390625 0 C 13.03125 0 15.0625 -2.03125 15.0625 -5.734375 C 15.0625 -7.421875 15.125 -8.984375 15.125 -10.46875 L 27.078125 -10.46875 C 27.140625 -8.78125 27.140625 -7.09375 27.140625 -5.265625 C 27.140625 -1.828125 29.171875 0 32.890625 0 L 33.90625 0 C 37.609375 0 39.640625 -2.15625 39.578125 -6.078125 C 39.09375 -37.6875 33.296875 -47.46875 21.546875 -47.46875 Z M 15.265625 -18.5 C 15.734375 -33.625 17.15625 -37.953125 20.59375 -37.953125 C 23.96875 -37.953125 26 -33.625 26.8125 -18.5 Z M 15.265625 -18.5 "/></g></g></g><path stroke-linecap="butt" transform="matrix(-0.75, 0, 0, -0.75, 295.015063, 211.136367)" fill="none" stroke-linejoin="miter" d="M -0.000749697 3.999531 L 286.744061 3.999531 " stroke="#fbdcd9" stroke-width="8" stroke-opacity="1" stroke-miterlimit="4"/><g fill="#f9afa6" fill-opacity="1"><g transform="translate(76.571018, 238.541861)"><g><path d="M 9.671875 0.265625 C 12.71875 0.265625 14.40625 -0.640625 15.53125 -1.84375 C 16.015625 -2.375 16.15625 -3.046875 16.15625 -4.1875 L 16.15625 -7.859375 C 16.15625 -9.34375 15.34375 -10.15625 13.859375 -10.15625 L 11.40625 -10.15625 C 9.921875 -10.15625 9.109375 -9.53125 9.109375 -8.421875 C 9.109375 -7.328125 9.921875 -6.703125 11.40625 -6.703125 L 11.828125 -6.703125 L 11.828125 -4.625 C 11.828125 -3.921875 10.78125 -3.515625 9.53125 -3.515625 C 7.78125 -3.515625 6.296875 -4.625 6.296875 -9.375 C 6.296875 -13.78125 7.046875 -15.34375 9.328125 -15.34375 C 10.21875 -15.34375 10.8125 -15.109375 11.046875 -14.484375 C 11.59375 -13.109375 11.78125 -12.34375 13.1875 -12.34375 L 13.515625 -12.34375 C 15 -12.34375 16.015625 -13.1875 15.75 -14.671875 C 15.1875 -17.5 12.9375 -18.984375 9.296875 -18.984375 C 3.96875 -18.984375 1.34375 -15.78125 1.34375 -9.375 C 1.34375 -2.9375 3.921875 0.265625 9.671875 0.265625 Z M 9.671875 0.265625 "/></g></g></g><g fill="#f9afa6" fill-opacity="1"><g transform="translate(99.47683, 238.541861)"><g><path d="M 4.328125 0 L 4.8125 0 C 6.296875 0 7.109375 -0.8125 7.109375 -2.296875 C 7.078125 -3.78125 7.078125 -5.265625 7.078125 -6.75 L 8.078125 -6.75 C 10.265625 -6.75 11 -4.75 11.375 -2.1875 C 11.59375 -0.734375 12.375 0 13.8125 0 L 14.671875 0 C 16.265625 0 17.09375 -0.96875 16.75 -2.59375 C 16 -5.9375 14.890625 -7.625 13.109375 -8.15625 L 13.109375 -8.265625 C 15.40625 -8.828125 16.796875 -10.671875 16.796875 -13.109375 C 16.796875 -17.046875 14.453125 -18.71875 8.96875 -18.71875 L 4.328125 -18.71875 C 2.84375 -18.71875 2.03125 -17.90625 2.03125 -16.421875 C 2.046875 -14.078125 2.078125 -11.71875 2.078125 -9.375 C 2.078125 -7 2.046875 -4.640625 2.03125 -2.296875 C 2.03125 -0.8125 2.84375 0 4.328125 0 Z M 7.078125 -9.71875 C 7.078125 -12.265625 7.078125 -13.640625 7.109375 -15 L 8.40625 -15 C 10.640625 -15 11.59375 -14.296875 11.59375 -12.609375 C 11.59375 -10.5625 10.53125 -9.71875 8 -9.71875 Z M 7.078125 -9.71875 "/></g></g></g><g fill="#f9afa6" fill-opacity="1"><g transform="translate(123.300984, 238.541861)"><g><path d="M 9.296875 0.265625 C 14.59375 0.265625 17.203125 -2.9375 17.203125 -9.375 C 17.203125 -15.78125 14.59375 -18.984375 9.296875 -18.984375 C 4 -18.984375 1.34375 -15.78125 1.34375 -9.375 C 1.34375 -2.9375 4 0.265625 9.296875 0.265625 Z M 9.296875 -3.375 C 7.15625 -3.375 6.515625 -4.78125 6.515625 -9.375 C 6.515625 -13.9375 7.15625 -15.34375 9.296875 -15.34375 C 11.421875 -15.34375 12.046875 -13.9375 12.046875 -9.375 C 12.046875 -4.78125 11.421875 -3.375 9.296875 -3.375 Z M 9.296875 -3.375 "/></g></g></g><g fill="#f9afa6" fill-opacity="1"><g transform="translate(147.287207, 238.541861)"><g><path d="M 9.125 0.265625 C 13.8125 0.265625 16.1875 -1.9375 16.1875 -6.40625 C 16.1875 -8.421875 16.15625 -10.453125 16.15625 -12.484375 C 16.15625 -13.8125 16.15625 -15.109375 16.15625 -16.421875 C 16.1875 -17.90625 15.375 -18.71875 13.890625 -18.71875 L 13.859375 -18.71875 C 12.375 -18.71875 11.53125 -17.90625 11.5625 -16.40625 C 11.59375 -15.109375 11.59375 -13.78125 11.59375 -12.484375 C 11.59375 -10.515625 11.5625 -8.53125 11.53125 -6.5625 C 11.53125 -4.21875 10.921875 -3.375 9.125 -3.375 C 7.5625 -3.375 7 -4.21875 6.96875 -6.5625 C 6.9375 -8.53125 6.9375 -10.515625 6.9375 -12.484375 C 6.9375 -13.8125 6.9375 -15.109375 6.9375 -16.421875 C 6.96875 -17.90625 6.15625 -18.71875 4.671875 -18.71875 L 4.1875 -18.71875 C 2.703125 -18.71875 1.921875 -17.90625 1.921875 -16.421875 C 1.921875 -15.75 1.921875 -15.078125 1.921875 -14.40625 C 1.921875 -11.75 1.890625 -9.078125 1.890625 -6.40625 C 1.890625 -1.9375 4.328125 0.265625 9.125 0.265625 Z M 9.125 0.265625 "/></g></g></g><g fill="#f9afa6" fill-opacity="1"><g transform="translate(170.760229, 238.541861)"><g><path d="M 4.328125 0 L 4.8125 0 C 6.296875 0 7.109375 -0.8125 7.109375 -2.296875 C 7.078125 -3.40625 7.078125 -4.515625 7.078125 -5.625 L 8.078125 -5.625 C 13.453125 -5.625 16.796875 -8.40625 16.796875 -12.828125 C 16.796875 -16.96875 14.453125 -18.71875 8.96875 -18.71875 L 4.328125 -18.71875 C 2.84375 -18.71875 2.03125 -17.90625 2.03125 -16.421875 C 2.046875 -14.078125 2.078125 -11.71875 2.078125 -9.375 C 2.078125 -7 2.046875 -4.640625 2.03125 -2.296875 C 2.03125 -0.8125 2.84375 0 4.328125 0 Z M 7.078125 -9.453125 C 7.078125 -12.125 7.078125 -13.5625 7.109375 -15 L 8.40625 -15 C 10.640625 -15 11.59375 -14.296875 11.59375 -12.609375 C 11.59375 -10.375 10.53125 -9.453125 8 -9.453125 Z M 7.078125 -9.453125 "/></g></g></g><g fill="#f9afa6" fill-opacity="1"><g transform="translate(194.044194, 238.541861)"><g/></g></g><g fill="#f9afa6" fill-opacity="1"><g transform="translate(206.200004, 238.541861)"><g><path d="M 16.75 -9.375 C 16.75 -11.71875 16.75 -14.078125 16.75 -16.421875 C 16.78125 -17.90625 15.96875 -18.71875 14.484375 -18.71875 L 13.96875 -18.71875 C 12.484375 -18.71875 11.671875 -17.90625 11.703125 -16.421875 C 11.71875 -14.640625 11.71875 -12.859375 11.71875 -11.078125 L 7.078125 -11.078125 C 7.078125 -12.859375 7.078125 -14.640625 7.078125 -16.421875 C 7.109375 -17.90625 6.296875 -18.71875 4.8125 -18.71875 L 4.328125 -18.71875 C 2.84375 -18.71875 2.03125 -17.90625 2.046875 -16.421875 C 2.046875 -14.078125 2.078125 -11.71875 2.078125 -9.375 C 2.078125 -7.03125 2.046875 -4.671875 2.046875 -2.296875 C 2.03125 -0.8125 2.84375 0 4.328125 0 L 4.8125 0 C 6.296875 0 7.109375 -0.8125 7.078125 -2.296875 C 7.078125 -4 7.078125 -5.671875 7.078125 -7.34375 L 11.71875 -7.34375 C 11.71875 -5.671875 11.71875 -4 11.703125 -2.296875 C 11.671875 -0.8125 12.484375 0 13.96875 0 L 14.484375 0 C 15.96875 0 16.78125 -0.8125 16.75 -2.296875 C 16.75 -4.671875 16.71875 -7.03125 16.75 -9.375 Z M 16.75 -9.375 "/></g></g></g><g fill="#f9afa6" fill-opacity="1"><g transform="translate(230.402309, 238.541861)"><g><path d="M 9.296875 0.265625 C 14.59375 0.265625 17.203125 -2.9375 17.203125 -9.375 C 17.203125 -15.78125 14.59375 -18.984375 9.296875 -18.984375 C 4 -18.984375 1.34375 -15.78125 1.34375 -9.375 C 1.34375 -2.9375 4 0.265625 9.296875 0.265625 Z M 9.296875 -3.375 C 7.15625 -3.375 6.515625 -4.78125 6.515625 -9.375 C 6.515625 -13.9375 7.15625 -15.34375 9.296875 -15.34375 C 11.421875 -15.34375 12.046875 -13.9375 12.046875 -9.375 C 12.046875 -4.78125 11.421875 -3.375 9.296875 -3.375 Z M 9.296875 -3.375 "/></g></g></g><g fill="#f9afa6" fill-opacity="1"><g transform="translate(254.388535, 238.541861)"><g><path d="M 19.046875 -18.71875 L 16.296875 -18.71875 C 14.9375 -18.71875 14.109375 -18.09375 13.703125 -16.828125 L 11.75 -10.78125 L 9.421875 -16.90625 C 8.96875 -18.15625 8.125 -18.71875 6.8125 -18.71875 L 4.328125 -18.71875 C 2.84375 -18.71875 2.03125 -17.90625 2.046875 -16.421875 C 2.078125 -11.703125 2.078125 -7.03125 2.046875 -2.296875 C 2.03125 -0.8125 2.84375 0 4.265625 0 C 5.703125 0 6.484375 -0.8125 6.4375 -2.328125 C 6.328125 -5.140625 6.265625 -8.03125 6.21875 -12.9375 L 6.34375 -12.9375 L 9.1875 -4.046875 C 9.59375 -2.78125 10.21875 -2.15625 11.125 -2.15625 C 12.015625 -2.15625 12.671875 -2.78125 13.109375 -4.03125 L 16.1875 -12.9375 L 16.296875 -12.9375 L 16.3125 -9.375 C 16.3125 -7 16.296875 -4.640625 16.265625 -2.296875 C 16.265625 -0.8125 17.078125 0 18.5625 0 L 19.046875 0 C 20.53125 0 21.34375 -0.8125 21.34375 -2.296875 C 21.34375 -4.640625 21.3125 -7 21.3125 -9.375 C 21.3125 -11.71875 21.34375 -14.078125 21.34375 -16.421875 C 21.34375 -17.90625 20.53125 -18.71875 19.046875 -18.71875 Z M 19.046875 -18.71875 "/></g></g></g><g fill="#f9afa6" fill-opacity="1"><g transform="translate(283.155532, 238.541861)"><g><path d="M 7.078125 -3.59375 L 7.078125 -7.453125 C 8.21875 -7.421875 9.34375 -7.421875 10.421875 -7.40625 C 11.90625 -7.40625 12.71875 -8.046875 12.71875 -9.234375 C 12.71875 -10.40625 11.90625 -11.046875 10.421875 -11.046875 C 9.34375 -11.015625 8.21875 -11.015625 7.078125 -11 L 7.078125 -15.125 C 8.5625 -15.109375 10.078125 -15.109375 11.515625 -15.078125 C 13 -15.078125 13.8125 -15.71875 13.8125 -16.90625 C 13.8125 -18.078125 13 -18.71875 11.515625 -18.71875 L 4.328125 -18.71875 C 2.84375 -18.71875 2.03125 -17.90625 2.046875 -16.421875 C 2.046875 -14.078125 2.078125 -11.71875 2.078125 -9.375 C 2.078125 -7.03125 2.046875 -4.671875 2.046875 -2.296875 C 2.03125 -0.8125 2.84375 0 4.328125 0 L 11.78125 0 C 13.265625 0 14.078125 -0.640625 14.078125 -1.84375 C 14.078125 -3 13.265625 -3.640625 11.78125 -3.640625 C 10.265625 -3.625 8.671875 -3.625 7.078125 -3.59375 Z M 7.078125 -3.59375 "/></g></g></g></svg>